<?xml version="1.0" encoding="UTF-8"?>
<svg id="Capa_2" data-name="Capa 2" xmlns="http://www.w3.org/2000/svg" xmlns:xlink="http://www.w3.org/1999/xlink" viewBox="0 0 84 84">
  <defs>
    <style>
      .cls-1 {
        fill: #03ba85;
      }

      .cls-1, .cls-2, .cls-3, .cls-4 {
        stroke-width: 0px;
      }

      .cls-2 {
        fill: #fff;
      }

      .cls-3 {
        fill: #064466;
      }

      .cls-4 {
        fill: url(#Degradado_sin_nombre_6);
      }
    </style>
    <linearGradient id="Degradado_sin_nombre_6" data-name="Degradado sin nombre 6" x1="11.23" y1="31.51" x2="63.84" y2="31.51" gradientUnits="userSpaceOnUse">
      <stop offset="0" stop-color="#fff"/>
      <stop offset=".22" stop-color="#03ba85"/>
      <stop offset="1" stop-color="#064466"/>
    </linearGradient>
  </defs>
  <g id="Capa_1-2" data-name="Capa 1">
    <g>
      <rect class="cls-2" x="0" y="0" width="84" height="84" rx="41.37" ry="41.37"/>
      <g>
        <g>
          <path class="cls-3" d="M56.79,49.43c-.24,0-.48-.02-.72-.08-.91-.19-1.69-.72-2.2-1.5-.51-.78-.68-1.71-.49-2.61.39-1.88,2.24-3.08,4.11-2.69.91.19,1.69.72,2.2,1.5.51.78.68,1.71.49,2.61h0c-.19.91-.72,1.69-1.5,2.2-.57.37-1.23.57-1.89.57ZM56.78,44.47c-.69,0-1.31.48-1.46,1.18-.08.39,0,.79.21,1.12s.55.56.94.64c.39.08.79,0,1.12-.21.33-.22.56-.55.64-.94h0c.08-.39,0-.79-.21-1.12s-.55-.56-.94-.64c-.1-.02-.21-.03-.31-.03Z"/>
          <path class="cls-4" d="M59.02,9.95c-.58-.89-1.68-1.3-2.71-1-3.6,1.05-7,2.78-9.95,5.09-2.06,1.61-3.91,3.49-5.47,5.58-1.26,1.69-2.48,3.44-3.42,5.33-2.07,4.17-2.93,9-2.81,13.63.06,2.15.18,4.31.61,6.42.3,1.48.74,2.95,1.4,4.32H13.66c-1.5,0-2.69,1.37-2.37,2.93.23,1.13,1.28,1.92,2.44,1.92h28.03c1.48,0,2.73-1.22,2.58-2.7-.14-1.32-1.49-1.84-2.23-2.79-.91-1.17-1.46-2.59-1.76-4.03-.79-3.84-.46-8.23.33-12.05.52-2.53,1.37-4.99,2.52-7.31.55-1.12,1.19-2.2,1.9-3.22,1.77-2.27,5.23-5.79,10.72-7.87,1.65,3.47,4.84,12.22,2.03,23.65-1.22-.45-2.22-1.18-3.02-2.22-2.5-3.25-2.34-8.55-2.12-10.94.07-.7-.42-1.33-1.11-1.45-.77-.13-1.49.41-1.57,1.19-.26,2.75-.41,8.81,2.66,12.82,1.69,2.2,4.8,3.96,7.65,3.78,1.04-.06,1.9-.8,2.16-1.81,4.3-17.1-3.17-28.81-3.49-29.3Z"/>
        </g>
        <path class="cls-3" d="M13.5,56.78c-2.77,0-5.03-2.26-5.03-5.03s2.26-5.03,5.03-5.03,5.03,2.26,5.03,5.03-2.26,5.03-5.03,5.03ZM13.5,50.07c-.92,0-1.68.75-1.68,1.68s.75,1.68,1.68,1.68,1.68-.75,1.68-1.68-.75-1.68-1.68-1.68Z"/>
      </g>
      <g>
        <path class="cls-3" d="M27.86,63.57c-.42.27-.89.47-1.37.58-.58.14-1.17.21-1.76.21-.67.02-1.34-.08-1.97-.29-.48-.15-.9-.43-1.23-.81-.27-.34-.42-.76-.42-1.19,0-.39.11-.77.33-1.08.24-.32.56-.56.93-.7-.29-.15-.53-.38-.7-.66-.16-.28-.25-.6-.25-.93,0-.41.13-.81.38-1.14.31-.38.71-.66,1.17-.82.61-.22,1.26-.33,1.91-.31.49,0,.98.05,1.46.15.43.08.84.22,1.24.4l-.5,1.36c-.67-.31-1.39-.47-2.13-.47-.57,0-1,.09-1.29.26-.26.13-.43.4-.43.7-.01.24.1.47.29.62.27.16.57.24.88.21h2.09v1.4h-2.2c-.36-.02-.71.06-1.03.23-.23.14-.37.4-.36.67,0,.31.18.59.47.72.31.17.79.26,1.43.26.46,0,.91-.06,1.36-.18.41-.1.8-.27,1.15-.5l.55,1.33Z"/>
        <path class="cls-3" d="M29.13,60.46h1.73c.38,0,.68.31.68.68h0c0,.38-.31.68-.68.68h-1.73c-.38,0-.68-.31-.68-.68h0c0-.38.31-.68.68-.68Z"/>
        <path class="cls-3" d="M38.21,58.71c-.65-.38-1.37-.63-2.11-.73v6.26h-1.78v-6.26c-.75.11-1.47.35-2.13.73l-.6-1.32c.53-.32,1.11-.56,1.71-.71.62-.16,1.26-.24,1.9-.24.64,0,1.29.08,1.91.24.6.15,1.17.39,1.71.71l-.6,1.32Z"/>
        <path class="cls-3" d="M42.67,62.81c.25-.1.48-.24.67-.43l.91.99c-.56.63-1.37.95-2.43.95-.61.01-1.22-.12-1.76-.39-.49-.24-.9-.61-1.18-1.08-.28-.47-.42-1.02-.42-1.57,0-.55.13-1.09.41-1.56.27-.46.66-.83,1.13-1.08.5-.26,1.05-.4,1.61-.39.53,0,1.06.12,1.53.36.46.23.84.59,1.1,1.03.28.48.42,1.03.41,1.59l-4.36.83c.11.28.32.51.59.66.3.15.64.23.98.22.28,0,.55-.04.82-.13ZM40.55,59.96c-.28.32-.43.73-.42,1.15l2.87-.56c-.07-.3-.25-.56-.5-.73-.26-.19-.58-.29-.9-.28-.39-.01-.77.14-1.05.42Z"/>
        <path class="cls-3" d="M46.96,63.93c-1.46-.75-2.04-2.54-1.29-4,.28-.56.74-1.01,1.29-1.29.52-.26,1.11-.4,1.69-.39.57-.01,1.13.12,1.63.39.45.25.81.64,1.01,1.11l-1.33.71c-.25-.5-.76-.82-1.33-.81-.41-.01-.81.14-1.11.44-.59.69-.59,1.7,0,2.39.29.29.69.45,1.11.44.56.01,1.08-.3,1.33-.81l1.33.72c-.21.47-.57.85-1.01,1.1-.5.27-1.06.41-1.63.39-.59,0-1.17-.12-1.69-.39Z"/>
        <path class="cls-3" d="M57.59,58.91c.45.44.67,1.09.67,1.95v3.38h-1.7v-3.11c0-.47-.1-.82-.31-1.05-.23-.24-.55-.37-.89-.35-.38-.02-.76.13-1.03.4-.26.27-.38.66-.38,1.19v2.91h-1.71v-8.13h1.71v2.85c.23-.23.51-.41.82-.52.34-.12.69-.18,1.05-.18.65-.03,1.29.21,1.77.66Z"/>
        <path class="cls-1" d="M22.35,73.93c-.49-.13-.95-.35-1.36-.64l.6-1.34c.36.26.75.45,1.17.58.44.14.9.22,1.36.22.5,0,.88-.07,1.12-.22.22-.12.37-.35.37-.6,0-.18-.08-.34-.21-.45-.16-.13-.35-.23-.55-.29-.22-.07-.52-.15-.91-.24-.49-.11-.97-.25-1.43-.42-.37-.14-.7-.37-.96-.67-.28-.34-.42-.78-.4-1.23,0-.43.12-.85.36-1.21.27-.39.65-.69,1.09-.87.57-.23,1.17-.34,1.78-.32.48,0,.97.05,1.43.17.43.1.85.27,1.23.5l-.55,1.35c-.64-.38-1.38-.59-2.13-.6-.5,0-.86.08-1.1.24-.22.13-.36.38-.36.63,0,.26.16.5.41.59.4.17.82.3,1.25.38.49.11.96.25,1.43.42.37.14.7.36.96.66.28.34.42.78.4,1.22,0,.43-.13.85-.37,1.2-.28.39-.66.69-1.1.86-.57.23-1.18.33-1.79.32-.6,0-1.19-.07-1.77-.23Z"/>
        <path class="cls-1" d="M34.4,68.15v5.89h-1.62v-.7c-.22.25-.5.45-.81.59-.32.14-.67.2-1.02.2-.78,0-1.39-.22-1.84-.67-.45-.45-.67-1.11-.68-1.98v-3.33h1.71v3.08c0,.95.4,1.42,1.19,1.42.37.02.73-.13.99-.4.25-.27.37-.66.37-1.19v-2.92h1.71Z"/>
        <path class="cls-1" d="M36.53,73.95c-.39-.09-.77-.24-1.12-.46l.57-1.23c.3.18.62.32.95.41.36.11.72.16,1.1.17.72,0,1.08-.18,1.08-.54,0-.17-.13-.32-.3-.36-.3-.09-.6-.16-.91-.19-.4-.06-.8-.14-1.2-.25-.31-.09-.59-.26-.81-.5-.25-.28-.37-.65-.35-1.03,0-.36.11-.71.32-.99.24-.31.57-.54.94-.67.47-.17.96-.25,1.46-.24.42,0,.83.05,1.24.14.36.07.71.2,1.03.38l-.57,1.22c-.52-.29-1.1-.44-1.7-.44-.28-.02-.57.04-.82.15-.16.07-.26.22-.27.4,0,.18.12.34.3.38.31.1.62.17.94.21.4.06.79.15,1.18.26.31.09.58.26.8.5.24.28.36.64.33,1,0,.35-.12.7-.33.98-.25.31-.58.54-.96.67-.48.17-.99.25-1.5.24-.48,0-.95-.07-1.42-.2Z"/>
        <path class="cls-1" d="M45.35,73.76c-.19.13-.4.23-.62.28-.25.06-.5.09-.76.09-.71,0-1.25-.18-1.63-.54-.38-.36-.57-.88-.57-1.58v-5.18h1.7v1.44h1.46v1.31h-1.46v2.4c-.01.21.05.41.19.57.14.14.34.22.54.2.25,0,.5-.07.7-.22l.45,1.21Z"/>
        <path class="cls-1" d="M52.11,68.15v5.89h-1.62v-.68c-.42.51-1.04.77-1.84.77-.52,0-1.04-.12-1.5-.37-.45-.25-.81-.61-1.06-1.06-.51-1.01-.51-2.19,0-3.2.24-.45.61-.82,1.06-1.06.46-.25.98-.38,1.5-.37.75,0,1.34.24,1.76.71v-.62h1.7ZM50.01,72.28c.57-.69.57-1.69,0-2.38-.6-.59-1.56-.59-2.16,0-.57.69-.57,1.69,0,2.38.6.59,1.56.59,2.16,0Z"/>
        <path class="cls-1" d="M62.34,68.72c.45.44.67,1.09.67,1.95v3.37h-1.71v-3.11c0-.47-.1-.81-.31-1.05-.23-.24-.55-.37-.89-.35-.38-.02-.76.13-1.03.4-.26.27-.38.67-.38,1.19v2.91h-1.71v-5.89h1.63v.69c.23-.25.52-.45.84-.57.35-.14.73-.21,1.11-.2.66-.03,1.3.21,1.78.66Z"/>
        <path class="cls-1" d="M53.78,67.06c-.38-.35-.4-.94-.05-1.31.02-.02.03-.03.05-.05.21-.19.49-.29.77-.27.28-.01.55.08.77.26.19.16.3.4.3.66,0,.27-.1.53-.3.71-.21.19-.48.29-.77.28-.28.01-.56-.09-.77-.27ZM53.69,68.15h1.71v5.89h-1.71v-5.89Z"/>
      </g>
    </g>
  </g>
</svg>