<?xml version="1.0" encoding="UTF-8"?>
<svg id="Capa_2" data-name="Capa 2" xmlns="http://www.w3.org/2000/svg" xmlns:xlink="http://www.w3.org/1999/xlink" viewBox="0 0 359.79 346.52">
  <defs>
    <style>
      .cls-1 {
        opacity: .4;
      }

      .cls-1, .cls-2, .cls-3, .cls-4, .cls-5, .cls-6, .cls-7, .cls-8, .cls-9, .cls-10, .cls-11, .cls-12, .cls-13, .cls-14, .cls-15, .cls-16, .cls-17, .cls-18, .cls-19, .cls-20, .cls-21, .cls-22, .cls-23 {
        stroke-width: 0px;
      }

      .cls-3 {
        fill: #37474f;
      }

      .cls-4 {
        fill: #e0e0e0;
      }

      .cls-5 {
        fill: #b16668;
      }

      .cls-6 {
        opacity: .8;
      }

      .cls-6, .cls-11, .cls-13, .cls-23 {
        fill: #fff;
      }

      .cls-7 {
        fill: #f5f5f5;
      }

      .cls-8 {
        opacity: .2;
      }

      .cls-9 {
        fill: #ffa8a7;
      }

      .cls-24, .cls-20 {
        opacity: .15;
      }

      .cls-10, .cls-25 {
        fill: #27debf;
      }

      .cls-12 {
        opacity: .45;
      }

      .cls-13 {
        opacity: .6;
      }

      .cls-14 {
        fill: #fafafa;
      }

      .cls-15 {
        fill: #f28f8f;
      }

      .cls-16 {
        fill: #263238;
      }

      .cls-17 {
        opacity: .35;
      }

      .cls-26 {
        clip-path: url(#clippath);
      }

      .cls-18 {
        opacity: .23;
      }

      .cls-19 {
        opacity: .5;
      }

      .cls-21 {
        fill: #455a64;
      }

      .cls-22 {
        opacity: .1;
      }

      .cls-23 {
        opacity: .3;
      }
    </style>
    <clipPath id="clippath">
      <path class="cls-10" d="M312.12,303.72l-8.19,4.73c-.61.35-1.61.35-2.22,0l-9.99-5.69c-.61-.35-.61-.93,0-1.28l8.19-4.73c.61-.35,1.61-.35,2.22,0,2.71,1.56,7.28,4.13,9.99,5.69.61.35.61.93,0,1.28Z"/>
    </clipPath>
  </defs>
  <g id="OBJECTS">
    <ellipse id="Floor" class="cls-7" cx="179.9" cy="242.66" rx="179.9" ry="103.86"/>
    <path id="Shadow" class="cls-4" d="M46.54,261.09c.03-.07.07-.13.12-.2.03-.05.06-.08.1-.13.03-.05.07-.09.12-.14.04-.04.09-.09.13-.13.13-.12.3-.24.49-.34l168.19-97.09c1.5-.86,3.93-.86,5.42,0l87.51,50.39c.12.07.23.13.32.2.04.03.08.05.11.09.2.16.34.33.45.51.03.04.05.09.08.13.04.07.07.14.09.21.02.05.03.11.04.16.02.09.03.18.03.27,0,.06,0,.13-.02.19-.02.07-.03.14-.05.21-.02.07-.05.14-.09.2-.17.34-.49.67-.96.94l-168.19,97.09c-.46.27-1.03.45-1.61.55-.35.06-.73.09-1.1.09-.37,0-.74-.03-1.09-.09-.13-.02-.24-.04-.35-.07-.34-.08-.67-.19-.98-.33-.1-.05-.2-.1-.29-.16l-87.51-50.39c-1.03-.6-1.35-1.44-.96-2.19Z"/>
    <ellipse id="Shadow-2" data-name="Shadow" class="cls-4" cx="75.55" cy="208.16" rx="37.41" ry="21.6"/>
    <path id="Shadow-3" data-name="Shadow" class="cls-4" d="M283.54,337.75c-1.61,0-3.16-.38-4.36-1.08l-74.92-43.25-.07-.05c-1.46-.87-2.31-2.24-2.3-3.72.01-1.49.9-2.86,2.45-3.75l49.42-28.53c1.19-.69,2.74-1.07,4.34-1.07s3.16.38,4.36,1.07l74.87,43.22c1.55.9,2.43,2.27,2.44,3.77,0,1.43-.78,2.74-2.18,3.63-.1.07-.2.14-.3.2l-37.4,21.58-12,6.93c-1.2.69-2.74,1.07-4.35,1.07h0Z"/>
    <g id="Device">
      <g id="Mobile">
        <path class="cls-21" d="M52.08,252.16l80.21,46.31c.09.05.19.11.29.16.31.14.63.25.98.33.11.03.23.05.35.07.35.05.72.09,1.09.09.37,0,.74-.03,1.1-.09.59-.1,1.15-.28,1.61-.55l163.61-94.46c.47-.27.79-.6.96-.94.03-.06.06-.13.09-.2.02-.07.04-.14.05-.21,0-.06.02-.13.02-.19,0-.09,0-.18-.03-.27,0-.05-.02-.11-.04-.16-.02-.07-.05-.14-.09-.21-.02-.05-.05-.09-.08-.13-.11-.18-.26-.34-.45-.51-.03-.03-.07-.05-.11-.09-.09-.07-.2-.13-.32-.2l-80.21-46.31c-1.5-.86-3.93-.86-5.42,0L52.08,249.03c-.19.11-.35.23-.49.34-.05.04-.09.09-.13.13-.05.05-.09.09-.12.14-.04.05-.07.08-.1.13-.05.06-.09.13-.12.2-.39.75-.07,1.6.96,2.19ZM68.74,243.92l136.78-78.98c.12-.07.24-.13.36-.17.24-.09.46-.16.7-.19.96-.13,1.92.26,2.85.79l73.44,42.4c1.03.6,1.24,1.51.59,2.23-.15.16-.34.32-.59.46l-6.28,3.62-129.76,74.92c-.18.1-.37.2-.56.27-1.13.46-2.39.46-3.52,0-.19-.08-.37-.17-.55-.27l-68.34-39.43-5.13-2.96c-1.03-.6-1.03-2.09,0-2.69Z"/>
        <path class="cls-3" d="M301.64,201.08c1.35.96,2.39,2.88,2.4,4.49v3.58c0,1.74-1.21,3.84-2.71,4.71l-163.6,94.45c-.57.33-1.26.53-1.99.61-.24.03-.48.04-.73.05,0,0,0,0,0,0v-9.86s0,0,0,0c.37,0,.74-.03,1.1-.09.59-.1,1.15-.29,1.62-.55l163.61-94.46c1.38-.8,1.49-2.05.32-2.92Z"/>
        <path class="cls-10" d="M94.46,269.19c2.63-1.51,7.05-1.51,9.68,0,.67.39,1.18.85,1.45,1.32.87,1.5-.72,2.64-1.45,3.06-2.63,1.51-7.05,1.51-9.68,0-.67-.39-1.17-.85-1.45-1.32-.87-1.5.73-2.64,1.45-3.06Z"/>
        <g>
          <path class="cls-16" d="M254.66,181.97c-.73-.42-.73-1.11,0-1.53.73-.42,1.92-.42,2.65,0,.73.42.73,1.11,0,1.53-.73.42-1.92.42-2.65,0Z"/>
          <g>
            <path class="cls-16" d="M258.82,189.22c-.65-.37-.65-.98,0-1.36s1.7-.37,2.35,0c.65.37.65.98,0,1.36s-1.7.37-2.35,0Z"/>
            <path class="cls-16" d="M254.84,186.98l-13.17-7.6c-.72-.42-.76-1.07-.08-1.46.68-.39,1.81-.37,2.53.05l13.17,7.6c.72.42.76,1.07.08,1.46-.68.39-1.81.37-2.53-.05Z"/>
          </g>
        </g>
        <path class="cls-16" d="M51.72,249.27c-1.12.87-1,2.11.36,2.89l80.22,46.31c.74.43,1.73.65,2.71.64v9.86c-.99,0-1.96-.22-2.71-.66l-80.21-46.3c-1.5-.86-2.71-2.96-2.71-4.7v-3.59c0-1.59,1.02-3.49,2.35-4.46Z"/>
        <g>
          <g>
            <path class="cls-21" d="M263.07,228.86c-.77.45-1.4,1.49-1.4,2.33,0,.4.15.69.39.82.17.09.81.47.98.57.25.14.61.11,1.01-.12l18.24-10.53c.77-.45,1.4-1.49,1.4-2.33,0-.39-.13-.66-.35-.8-.17-.11-.84-.49-1.01-.59-.25-.14-.61-.12-1.01.11l-18.24,10.53Z"/>
            <path class="cls-16" d="M264.04,229.43l18.24-10.53c.77-.45,1.4-.13,1.4.71s-.63,1.88-1.4,2.33l-18.24,10.53c-.77.45-1.4.13-1.4-.71,0-.84.63-1.88,1.4-2.33Z"/>
          </g>
          <g>
            <path class="cls-21" d="M287.48,214.77c-.77.45-1.4,1.49-1.4,2.33,0,.4.15.69.39.82.17.09.81.47.98.57.25.14.61.11,1.01-.12l8.6-4.96c.77-.45,1.4-1.49,1.4-2.33,0-.39-.13-.66-.35-.8-.17-.11-.84-.49-1.01-.59-.25-.14-.61-.12-1.01.11l-8.6,4.96Z"/>
            <path class="cls-16" d="M288.46,215.33l8.6-4.96c.77-.45,1.4-.13,1.4.71,0,.84-.63,1.88-1.4,2.33l-8.6,4.96c-.77.45-1.4.13-1.4-.71s.63-1.88,1.4-2.33Z"/>
          </g>
        </g>
      </g>
      <g id="Window">
        <path class="cls-10" d="M68.74,246.57l5.13,2.96,68.34,39.43c.18.1.36.2.55.27,1.13.46,2.39.46,3.52,0,.19-.08.38-.17.56-.27l129.76-74.92,6.28-3.62c.24-.14.44-.3.59-.46.65-.71.45-1.62-.59-2.23l-73.44-42.4c-.93-.53-1.9-.92-2.85-.79-.24.03-.46.09-.7.19-.12.05-.24.1-.36.17l-136.78,78.98c-1.03.6-1.03,2.09,0,2.69Z"/>
        <path class="cls-6" d="M68.74,246.57l5.13,2.96,68.34,39.43c.18.1.36.2.55.27,1.13.46,2.39.46,3.52,0,.19-.08.38-.17.56-.27l129.76-74.92,6.28-3.62c.24-.14.44-.3.59-.46.65-.71.45-1.62-.59-2.23l-73.44-42.4c-.93-.53-1.9-.92-2.85-.79-.24.03-.46.09-.7.19-.12.05-.24.1-.36.17l-136.78,78.98c-1.03.6-1.03,2.09,0,2.69Z"/>
        <g>
          <g>
            <path class="cls-21" d="M267.26,204.84l-.15-.08s-.06-.04-.06-.06c0-.02.02-.04.06-.06l.36-.21-.19-.11s-.05-.04-.05-.06c0-.02.02-.04.06-.06l.09-.05s.08-.04.11-.04c.03,0,.07,0,.1.03l.19.11,1.26-.73s.08-.04.11-.04c.04,0,.07,0,.11.03l.12.07s.04.03.05.04c0,.01,0,.03,0,.05l-.37,1.28s-.02.04-.03.05c-.01.01-.03.03-.06.04l-.13.07c-.05.03-.1.03-.15,0l-.87-.5-.36.21s-.07.03-.11.03c-.03,0-.07,0-.1-.03ZM268.71,204.78l.27-.88-.9.52.63.36Z"/>
            <path class="cls-21" d="M265.54,203.9c-.29-.17-.46-.33-.5-.5,0-.02,0-.03,0-.05.01-.01.03-.03.06-.05l.84-.48s.09-.04.13-.04c.04,0,.08,0,.12.03l.58.33s.05.04.05.06c0,.02-.02.04-.06.06l-.08.05s-.08.04-.11.04c-.03,0-.07,0-.1-.03l-.36-.21-.59.34s.06.08.11.13c.06.05.12.09.19.14.2.12.43.17.68.16.25-.01.51-.1.79-.26.28-.16.42-.31.44-.46.02-.15-.08-.28-.29-.4-.17-.1-.36-.16-.56-.19-.03,0-.05,0-.05-.01-.01,0-.01-.02,0-.04l.08-.14s.02-.02.03-.03c.02,0,.04-.01.07,0,.13,0,.26.04.39.08.14.04.27.1.39.18.31.18.45.37.43.58-.02.21-.22.42-.57.63-.36.21-.72.32-1.09.33-.36.01-.7-.07-1.01-.25Z"/>
          </g>
          <g>
            <path class="cls-21" d="M259.37,199.85c-.28.16-.28.42,0,.58.28.16.73.16,1.01,0,.28-.16.28-.42,0-.58-.28-.16-.73-.16-1.01,0Z"/>
            <path class="cls-21" d="M259.32,199.1c-.13.02-.21.1-.2.17h0c.02.1.19.17.35.14.45-.08.96-.02,1.32.19.36.21.47.5.33.76-.05.09.06.19.23.2h0c.13,0,.26-.04.3-.11.19-.37.04-.79-.47-1.08-.51-.29-1.23-.38-1.88-.27Z"/>
            <path class="cls-21" d="M259.22,198.44c-.14.02-.24.09-.22.18h0c.02.1.18.16.34.14.8-.1,1.66.02,2.28.38s.84.86.66,1.31c-.04.09.07.19.24.2h0c.15.01.28-.05.31-.13.21-.56-.06-1.17-.81-1.61-.76-.44-1.82-.59-2.79-.47Z"/>
          </g>
          <g>
            <path class="cls-21" d="M246.8,191.74s-.07,0-.1-.02c-.03-.01-.04-.03-.05-.05l-.1-.49-1.65.95s-.06.02-.09.02c-.04,0-.07,0-.09-.02l-.27-.16s-.04-.03-.04-.05c0-.02.01-.04.04-.05l2.15-1.24s.05-.02.09-.02c.04,0,.07,0,.09.02l.26.15s.04.03.04.05c0,.02.01.04.02.05l.15.75s0,.04-.02.05c-.02.02-.05.03-.09.03l-.35.02Z"/>
            <path class="cls-21" d="M245.11,190.77s-.07,0-.1-.02c-.03-.01-.04-.03-.05-.05l-.1-.49-1.65.95s-.05.02-.09.02c-.04,0-.07,0-.09-.02l-.27-.16s-.04-.03-.04-.05c0-.02.01-.04.04-.05l2.15-1.24s.05-.02.09-.02c.04,0,.07,0,.09.02l.26.15s.04.03.04.05c0,.02.01.04.02.05l.15.75s0,.04-.03.05c-.02.02-.05.03-.08.03l-.35.02Z"/>
            <path class="cls-21" d="M243.65,189.59s.04.03.04.05c0,.02-.01.04-.04.05l-.33.19s-.05.02-.09.02c-.04,0-.07,0-.09-.02l-.31-.18s-.04-.03-.04-.05c0-.02.01-.04.04-.05l.33-.19s.05-.02.09-.02c.04,0,.07,0,.09.02l.31.18ZM242.48,190.27s.04.03.04.05c0,.02-.01.04-.04.05l-.33.19s-.05.02-.09.02c-.04,0-.07,0-.09-.02l-.31-.18s-.04-.03-.04-.05c0-.02.01-.04.04-.05l.33-.19s.05-.02.09-.02c.04,0,.07,0,.09.02l.31.18Z"/>
            <path class="cls-21" d="M239.62,189.2s-.04-.03-.04-.05c0-.02.01-.04.04-.05l.4-.23-.29-.17s-.04-.03-.04-.05c0-.02.01-.04.04-.05l.24-.14s.05-.02.09-.02c.04,0,.07,0,.09.02l.29.17,1.33-.77s.05-.02.09-.02c.04,0,.07,0,.09.02l.25.15s.06.07.05.13l-.25,1.32s-.01.05-.02.07c0,.02-.03.04-.06.06l-.24.14s-.05.02-.09.02c-.04,0-.06,0-.09-.02l-1.03-.6-.4.23s-.05.02-.09.02c-.04,0-.07,0-.09-.02l-.27-.16ZM241.46,189.21l.14-.74-.71.41.57.33Z"/>
            <path class="cls-21" d="M239.76,187.99s-.05.02-.09.02c-.04,0-.07,0-.09-.02l-.31-.18s-.05-.04-.06-.05c-.01-.02-.02-.04-.03-.06-.01-.02-.03-.05-.06-.08-.03-.03-.08-.06-.14-.1-.13-.07-.27-.11-.41-.12-.14,0-.27.02-.37.08-.12.07-.17.15-.17.23,0,.08.08.16.2.24.05.03.1.06.16.08.05.02.11.04.17.05.06.01.12.02.18.01.06,0,.12-.01.19-.04.03-.01.06-.01.1-.01.03,0,.06,0,.08.02l.27.16s.04.03.04.05c0,.02-.01.04-.04.05-.09.05-.19.08-.31.11-.11.02-.24.03-.37.03-.13,0-.27-.03-.42-.07-.15-.04-.29-.11-.45-.2-.12-.07-.22-.14-.29-.22-.08-.08-.12-.16-.13-.24-.01-.08,0-.17.06-.25.06-.08.15-.17.3-.25.12-.07.26-.12.4-.15.14-.03.28-.04.42-.03.14,0,.29.03.43.07.14.04.27.1.4.17.04.02.08.05.14.09.05.04.1.08.13.13l.39-.27-.94-.54s-.04-.03-.04-.05c0-.02.01-.04.04-.05l.24-.14s.06-.02.09-.02c.04,0,.07,0,.09.02l1.25.72s.04.03.04.05c0,.02-.01.04-.04.05l-1.03.71Z"/>
          </g>
          <g>
            <polygon class="cls-21" points="276.69 210.57 277.39 210.17 276.46 209.63 275.77 210.03 276.69 210.57"/>
            <polygon class="cls-21" points="275.3 209.76 276.69 208.96 275.77 208.43 274.38 209.23 275.3 209.76"/>
            <polygon class="cls-21" points="273.91 208.96 276 207.76 275.07 207.22 272.98 208.43 273.91 208.96"/>
            <polygon class="cls-21" points="272.52 208.16 275.3 206.55 274.37 206.02 271.6 207.62 272.52 208.16"/>
          </g>
          <g>
            <path class="cls-21" d="M209.09,169.46l-1.26.73c-.3.17-.36.41-.13.54l3.47,2c.07.04.16.07.27.08.08,0,.18.01.27,0,.23-.02.44-.08.61-.18l1.26-.73c.3-.17.36-.41.13-.54l-3.47-2c-.12-.07-.32-.1-.55-.08-.23.02-.44.08-.61.18ZM211.51,172.63l-3.47-2c-.17-.1-.12-.28.1-.41l1.26-.73c.08-.05.18-.08.26-.09.03,0,.06,0,.09,0,.05,0,.1.02.14.04l3.47,2c.17.1.12.28-.1.41l-1.26.73c-.08.05-.18.08-.26.09-.08,0-.17,0-.23-.05Z"/>
            <g>
              <path class="cls-21" d="M212.48,171.2l-1.49.86.55.31s.15.04.18.02l1.11-.64c.16-.09.19-.23.08-.31l-.42-.25Z"/>
              <polygon class="cls-21" points="212.23 171.06 211.58 170.68 210.09 171.54 210.74 171.92 212.23 171.06"/>
              <polygon class="cls-21" points="211.32 170.54 210.68 170.16 209.18 171.03 209.83 171.4 211.32 170.54"/>
              <path class="cls-21" d="M209.67,169.7l-1.08.62c-.2.11-.16.28.11.43l.22.13,1.49-.86-.52-.3c-.06-.03-.19-.05-.23-.02Z"/>
            </g>
            <path class="cls-21" d="M208.95,169.39c-.09-.06-.38.02-.64.17l-.23.14c-.26.15-.4.32-.31.38l.16.11,1.19-.69s-.08-.05-.17-.1Z"/>
          </g>
          <polygon class="cls-21" points="218.52 175.11 215.84 172.78 214.42 174.79 216.28 174.29 218.52 175.11"/>
        </g>
      </g>
    </g>
    <g id="Cart">
      <g>
        <g>
          <path class="cls-3" d="M136.97,220.83c-.02-3.24,2.23-7.2,5.03-8.84,1.47-.86,2.79-.9,3.72-.29h0l3.44,1.94-7.21,12.43-3.41-1.93h0c-.96-.52-1.56-1.66-1.57-3.31Z"/>
          <path class="cls-21" d="M145.57,214.02c-2.8,1.64-5.05,5.6-5.03,8.84.02,3.24,2.3,4.54,5.1,2.9,2.8-1.64,5.05-5.6,5.03-8.84-.02-3.24-2.3-4.54-5.1-2.9Z"/>
          <path class="cls-16" d="M147.32,218.88c0-1.27-.78-1.84-1.73-1.29-.95.55-1.71,2.03-1.7,3.3,0,1.27.78,1.84,1.73,1.29.95-.55,1.71-2.03,1.7-3.3Z"/>
          <path class="cls-20" d="M140.54,222.86c0-1.09.25-2.26.69-3.4l8.73-5.07c.44.61.7,1.47.7,2.54,0,.04,0,.08,0,.12l-10.12,5.88s0-.04,0-.06Z"/>
        </g>
        <path class="cls-21" d="M173.13,248.46c1.92.11,3.86-.2,5.37-.96l47.62-27.43c2.88-1.45,6.11-5.21,6.31-8.77l1.46-33.92-2.65-.15-1.46,33.92c-.14,2.42-2.67,5.45-4.85,6.55l-47.62,27.43c-2.2,1.11-5.94.89-7.99-.46l-31.75-18.29c-.76-.5-1.2-1.1-1.17-1.6.03-.5.51-1.01,1.31-1.42l50.97-29.59c2.87-1.45,6.09-5.21,6.29-8.78l.71-18.81-2.65-.15-.71,18.81c-.14,2.43-2.66,5.46-4.83,6.55l-50.97,29.59c-1.7.86-2.69,2.15-2.77,3.64-.09,1.48.77,2.93,2.36,3.97l31.75,18.29c1.42.94,3.33,1.47,5.27,1.58Z"/>
        <g>
          <path class="cls-3" d="M181.69,247.7c-.02-3.24,2.23-7.2,5.03-8.84,1.47-.86,2.79-.9,3.72-.29h0l3.44,1.94-7.21,12.43-3.41-1.93h0c-.96-.52-1.56-1.66-1.57-3.31Z"/>
          <path class="cls-21" d="M190.29,240.89c-2.8,1.64-5.05,5.6-5.03,8.84.02,3.24,2.3,4.54,5.1,2.9,2.8-1.64,5.05-5.6,5.03-8.84-.02-3.24-2.3-4.54-5.1-2.9Z"/>
          <path class="cls-16" d="M192.04,245.76c0-1.27-.78-1.84-1.73-1.29-.95.55-1.71,2.03-1.7,3.3,0,1.27.78,1.84,1.73,1.29.95-.55,1.71-2.03,1.7-3.3Z"/>
        </g>
        <g>
          <path class="cls-3" d="M216.86,227.42c-.03-3.24,2.22-7.2,5.01-8.85,1.47-.86,2.79-.91,3.72-.29h0l3.44,1.93-7.19,12.45-3.41-1.93h0c-.96-.52-1.56-1.66-1.58-3.31Z"/>
          <path class="cls-21" d="M225.44,220.6c-2.79,1.64-5.04,5.6-5.01,8.85.03,3.24,2.31,4.54,5.11,2.89,2.79-1.64,5.04-5.6,5.01-8.85-.03-3.24-2.31-4.54-5.11-2.89Z"/>
          <path class="cls-16" d="M227.2,225.46c-.01-1.27-.79-1.84-1.73-1.29-.95.56-1.7,2.03-1.69,3.3.01,1.27.79,1.84,1.73,1.29.95-.56,1.7-2.03,1.69-3.3Z"/>
        </g>
      </g>
      <path class="cls-21" d="M239.54,136.27c1.01-3.29-.51-7.52-3.39-9.41l-31.65-17.89c-2.88-1.89-6.03-.58-7.04,2.71l-2.19,7.12,2.17,1.27,2.35-7.2c.56-1.74,2.27-2.34,3.79-1.33l30.82,17.43c1.84,1.22,2.84,3.95,2.22,6.07l-1.86,6.83,2.59,1.51,2.2-7.12Z"/>
      <g>
        <g>
          <polygon class="cls-10" points="190.61 170.6 233.13 195.15 170.98 231.03 128.46 206.47 190.61 170.6"/>
          <polygon class="cls-19" points="190.61 170.6 233.13 195.15 170.98 231.03 128.46 206.47 190.61 170.6"/>
        </g>
        <g>
          <polygon class="cls-10" points="237.35 143.4 195.26 118.81 190.61 170.6 233.13 195.15 237.35 143.4"/>
          <polygon class="cls-17" points="237.35 143.4 195.26 118.81 190.61 170.6 233.13 195.15 237.35 143.4"/>
        </g>
        <g>
          <path class="cls-10" d="M118.65,163.04l9.81,43.43,62.14-35.87,4.66-51.79-76.61,44.23ZM171.79,163.9l10.27-26.65c.75-1.93,2.74-2.97,4.45-2.31,1.71.66,2.5,2.76,1.75,4.7l-10.27,26.65c-.75,1.93-2.74,2.97-4.45,2.31-1.71-.66-2.5-2.76-1.75-4.7ZM152.38,173.03l10.27-26.65c.75-1.93,2.74-2.97,4.45-2.31,1.71.66,2.5,2.76,1.75,4.7l-10.27,26.65c-.75,1.93-2.74,2.97-4.45,2.31-1.71-.66-2.5-2.76-1.75-4.7ZM132.98,182.16l10.27-26.65c.75-1.93,2.74-2.97,4.45-2.31,1.71.66,2.5,2.76,1.75,4.7l-10.27,26.65c-.75,1.93-2.74,2.97-4.45,2.31-1.71-.66-2.5-2.76-1.75-4.7Z"/>
          <path class="cls-18" d="M118.65,163.04l9.81,43.43,62.14-35.87,4.66-51.79-76.61,44.23ZM171.79,163.9l10.27-26.65c.75-1.93,2.74-2.97,4.45-2.31,1.71.66,2.5,2.76,1.75,4.7l-10.27,26.65c-.75,1.93-2.74,2.97-4.45,2.31-1.71-.66-2.5-2.76-1.75-4.7ZM152.38,173.03l10.27-26.65c.75-1.93,2.74-2.97,4.45-2.31,1.71.66,2.5,2.76,1.75,4.7l-10.27,26.65c-.75,1.93-2.74,2.97-4.45,2.31-1.71-.66-2.5-2.76-1.75-4.7ZM132.98,182.16l10.27-26.65c.75-1.93,2.74-2.97,4.45-2.31,1.71.66,2.5,2.76,1.75,4.7l-10.27,26.65c-.75,1.93-2.74,2.97-4.45,2.31-1.71-.66-2.5-2.76-1.75-4.7Z"/>
        </g>
        <g>
          <path class="cls-10" d="M161.17,187.59l9.81,43.43,62.14-35.88,4.22-51.75-76.18,44.2ZM211.06,189.64l10.27-26.65c.75-1.93,2.74-2.97,4.45-2.31,1.71.66,2.5,2.76,1.75,4.7l-10.27,26.65c-.75,1.93-2.74,2.97-4.45,2.31-1.71-.66-2.5-2.76-1.75-4.7ZM191.66,198.77l10.27-26.65c.75-1.93,2.74-2.97,4.45-2.31,1.71.66,2.5,2.76,1.75,4.7l-10.27,26.65c-.75,1.93-2.74,2.97-4.45,2.31-1.71-.66-2.5-2.76-1.75-4.7ZM172.26,207.9l10.27-26.65c.75-1.93,2.74-2.97,4.45-2.31,1.71.66,2.5,2.76,1.75,4.7l-10.27,26.65c-.75,1.93-2.74,2.97-4.45,2.31-1.71-.66-2.5-2.76-1.75-4.7Z"/>
          <g class="cls-24">
            <path class="cls-2" d="M161.17,187.59l9.81,43.43,62.14-35.88,4.22-51.75-76.18,44.2ZM211.06,189.64l10.27-26.65c.75-1.93,2.74-2.97,4.45-2.31,1.71.66,2.5,2.76,1.75,4.7l-10.27,26.65c-.75,1.93-2.74,2.97-4.45,2.31-1.71-.66-2.5-2.76-1.75-4.7ZM191.66,198.77l10.27-26.65c.75-1.93,2.74-2.97,4.45-2.31,1.71.66,2.5,2.76,1.75,4.7l-10.27,26.65c-.75,1.93-2.74,2.97-4.45,2.31-1.71-.66-2.5-2.76-1.75-4.7ZM172.26,207.9l10.27-26.65c.75-1.93,2.74-2.97,4.45-2.31,1.71.66,2.5,2.76,1.75,4.7l-10.27,26.65c-.75,1.93-2.74,2.97-4.45,2.31-1.71-.66-2.5-2.76-1.75-4.7Z"/>
          </g>
          <g>
            <polygon class="cls-10" points="161.17 187.59 118.65 163.05 128.46 206.48 170.98 231.03 161.17 187.59"/>
            <polygon class="cls-1" points="161.17 187.59 118.65 163.05 128.46 206.48 170.98 231.03 161.17 187.59"/>
          </g>
        </g>
      </g>
    </g>
    <g id="Arrow">
      <polygon class="cls-3" points="207.55 93.83 202.64 96.71 202.66 81.84 199.68 80.12 186.21 87.9 186.19 106.24 178.33 110.7 195.92 122.1 210.53 95.55 207.55 93.83"/>
      <polygon class="cls-21" points="189.19 89.62 189.16 107.96 181.31 112.42 195.92 122.1 210.53 95.55 202.64 100.18 202.66 81.84 189.19 89.62"/>
      <polygon class="cls-16" points="186.21 87.9 189.19 89.62 189.16 107.96 186.19 106.24 186.21 87.9"/>
    </g>
    <g id="Bag">
      <polygon class="cls-10" points="164.14 82.66 206.72 58.07 203.17 6.85 164.14 29.39 164.14 82.66"/>
      <polygon class="cls-13" points="164.14 82.66 206.72 58.07 203.17 6.85 164.14 29.39 164.14 82.66"/>
      <polygon class="cls-10" points="164.14 29.39 164.14 25.29 153.49 23.24 192.52 .7 196.07 6.85 203.17 6.85 164.14 29.39"/>
      <polygon class="cls-23" points="164.14 29.39 164.14 25.29 153.49 23.24 192.52 .7 196.07 6.85 203.17 6.85 164.14 29.39"/>
      <polygon class="cls-10" points="192.52 .7 192.52 13 196.07 10.95 196.07 6.85 192.52 .7"/>
      <polygon class="cls-22" points="192.52 .7 192.52 13 196.07 10.95 196.07 6.85 192.52 .7"/>
      <polygon class="cls-10" points="203.17 6.85 196.07 6.85 196.07 10.95 203.17 6.85"/>
      <polygon class="cls-8" points="203.17 6.85 196.07 6.85 196.07 10.95 203.17 6.85"/>
      <polygon class="cls-10" points="153.49 23.24 149.94 74.46 164.14 82.66 164.14 29.39 164.14 25.29 153.49 23.24"/>
      <polygon class="cls-22" points="153.49 23.24 149.94 74.46 164.14 82.66 164.14 29.39 164.14 25.29 153.49 23.24"/>
      <polygon class="cls-10" points="164.14 25.29 157.04 78.56 164.14 82.66 164.14 25.29"/>
      <polygon class="cls-8" points="164.14 25.29 157.04 78.56 164.14 82.66 164.14 25.29"/>
      <polygon class="cls-10" points="164.14 82.66 157.63 74.12 149.94 74.46 164.14 82.66"/>
      <g>
        <path class="cls-3" d="M165,22.7c0,.7.49.98,1.09.63.6-.35,1.09-1.2,1.09-1.89s-.49-.98-1.09-.63c-.6.35-1.09,1.2-1.09,1.89Z"/>
        <path class="cls-3" d="M179.53,14.5c0,.7.49.98,1.09.63.6-.35,1.09-1.2,1.09-1.89s-.49-.98-1.09-.63c-.6.35-1.09,1.2-1.09,1.89Z"/>
        <path class="cls-3" d="M166.09,21.9c-.2,0-.37-.16-.37-.37v-8.95c0-3.9,3.34-9,7.45-11.37,2.29-1.32,4.46-1.58,5.96-.71,1.2.69,1.85,2.04,1.85,3.79v9.05c0,.2-.16.37-.37.37s-.37-.16-.37-.37V4.3c0-1.5-.51-2.59-1.49-3.16-1.27-.73-3.18-.47-5.23.71-3.91,2.25-7.08,7.07-7.08,10.74v8.95c0,.2-.16.37-.37.37Z"/>
      </g>
      <g>
        <path class="cls-21" d="M175.81,28.84c0,.7.49.98,1.09.63.6-.35,1.09-1.2,1.09-1.89s-.49-.98-1.09-.63c-.6.35-1.09,1.2-1.09,1.89Z"/>
        <path class="cls-21" d="M190.34,20.65c0,.7.49.98,1.09.63.6-.35,1.09-1.2,1.09-1.89s-.49-.98-1.09-.63c-.6.35-1.09,1.2-1.09,1.89Z"/>
        <path class="cls-21" d="M176.9,28.05c-.2,0-.37-.16-.37-.37v-8.95c0-3.9,3.34-9,7.45-11.37,2.29-1.32,4.46-1.58,5.96-.71,1.2.69,1.85,2.04,1.85,3.79v9.05c0,.2-.16.37-.37.37s-.37-.16-.37-.37v-9.05c0-1.5-.51-2.59-1.49-3.16-1.27-.73-3.17-.47-5.23.71-3.9,2.25-7.08,7.07-7.08,10.74v8.95c0,.2-.16.37-.37.37Z"/>
      </g>
    </g>
    <g id="Card">
      <path class="cls-10" d="M287.41,329.15l49.42-28.53c.98-.56,1.33-1.3,1.34-2.04.01-.76.01-3.51.01-3.51-.02.02-1.32,1.89-1.34,1.9l-37.44,21.6-12,6.93c-1.8,1.04-4.7,1.04-6.51,0l-74.84-43.21s-1.27-1.48-1.3-1.49c0,0-.07,2.58-.03,3.45.02.63.52,1.23,1.33,1.7l74.85,43.2c1.79,1.05,4.71,1.04,6.51,0Z"/>
      <path class="cls-20" d="M287.41,329.15l49.42-28.53c.98-.56,1.33-1.3,1.34-2.04.01-.76.01-3.51.01-3.51-.02.02-1.32,1.89-1.34,1.9l-37.44,21.6-12,6.93c-1.8,1.04-4.7,1.04-6.51,0l-74.84-43.21s-1.27-1.48-1.3-1.49c0,0-.07,2.58-.03,3.45.02.63.52,1.23,1.33,1.7l74.85,43.2c1.79,1.05,4.71,1.04,6.51,0Z"/>
      <path class="cls-3" d="M322.59,305.2h0v3.65l14.24-8.22c.98-.56,1.33-1.3,1.34-2.04.01-.76.01-3.51.01-3.51-.02.02-1.32,1.89-1.34,1.9l-14.25,8.22Z"/>
      <path class="cls-10" d="M336.84,296.98s.05-.03.07-.05c1.72-1.02,1.69-2.68-.07-3.7l-74.86-43.22c-1.79-1.03-4.71-1.04-6.51,0l-49.42,28.53c-1.78,1.03-1.79,2.68-.07,3.71.02.02.05.03.07.05l74.84,43.21c1.8,1.04,4.71,1.04,6.51,0l12-6.93,37.44-21.6Z"/>
      <path class="cls-21" d="M322.59,305.2l14.25-8.22s.05-.03.07-.05c1.72-1.02,1.69-2.68-.07-3.7l-74.86-43.22c-1.79-1.03-4.71-1.04-6.51,0l-14.24,8.22,81.36,46.97Z"/>
      <path class="cls-20" d="M204.75,280.8s-.07,2.58-.03,3.45c.02.63.52,1.23,1.33,1.7l74.85,43.2c1.12.65,2.67.9,4.12.73v-3.65c-1.45.16-3.01-.08-4.13-.73l-74.84-43.21s-1.27-1.48-1.3-1.49Z"/>
      <g>
        <path class="cls-11" d="M228.97,275.91l-1.45-.84c-.07-.04-.1-.08-.11-.13,0-.05.02-.09.08-.13s.13-.05.22-.04c.09,0,.17.02.23.06l.48.28,2.09-1.21c.12-.07.17-.15.15-.25-.01-.1-.08-.19-.21-.27,0,0,0,0,0,0-.07-.04-.1-.08-.11-.13,0-.05.02-.09.08-.12s.13-.05.22-.05.17.02.23.06h0s0,0,0,0c.27.15.41.33.44.54.03.2-.08.37-.31.51l-2.09,1.21.48.28c.07.04.1.08.11.13,0,.05-.02.09-.08.13-.06.03-.13.05-.22.04-.09,0-.16-.03-.23-.06Z"/>
        <path class="cls-11" d="M233.37,277l-.97-.56c-.13-.08-.29-.12-.46-.13-.18,0-.32.02-.44.09l-.31.18s-.04.04-.04.06c0,.03.02.05.05.07l2.05,1.19c.07.04.1.08.11.13,0,.05-.02.09-.08.13-.06.03-.13.05-.22.04-.09,0-.17-.03-.23-.06l-2.42-1.39c-.07-.04-.1-.08-.11-.13,0-.05.02-.09.08-.13l.63-.36c.23-.13.52-.19.87-.18.35.02.66.1.93.25l.97.56c.13.08.29.12.47.13.18,0,.32-.02.44-.09l.42-.24c.12-.07.17-.15.15-.25-.01-.1-.09-.19-.22-.27l-.97-.56c-.13-.08-.29-.12-.46-.13-.18,0-.32.02-.44.09-.06.03-.13.05-.22.05-.09,0-.16-.02-.23-.06-.07-.04-.1-.08-.11-.13,0-.05.02-.09.08-.13.23-.13.52-.19.87-.18.35.02.66.1.93.25l.97.56c.27.15.42.33.44.54.02.2-.08.37-.31.5l-.42.24c-.23.13-.52.19-.87.18-.35-.01-.66-.1-.93-.25Z"/>
        <path class="cls-11" d="M237.98,279.9l-.21.12c-.23.13-.52.19-.87.18-.35-.01-.66-.1-.93-.25l-.96-.56c-.27-.15-.41-.33-.44-.54-.03-.2.08-.37.31-.5.06-.03.13-.05.22-.04.09,0,.16.02.23.06.07.04.1.08.11.13s-.02.09-.07.13c-.12.07-.17.15-.15.25.01.1.09.19.22.27l.96.56c.13.08.29.12.46.13.18,0,.32-.02.44-.09l.21-.12c.12-.07.17-.15.15-.25s-.09-.19-.22-.27l-.24-.14c-.07-.04-.1-.08-.11-.13,0-.05.02-.09.08-.13.06-.03.13-.05.22-.04.09,0,.17.02.23.06l.24.14c.13.08.29.12.46.13.18,0,.32-.02.44-.09l.21-.12c.12-.07.17-.15.15-.25-.01-.1-.09-.19-.22-.27l-.96-.56c-.13-.08-.29-.12-.46-.13-.18,0-.32.02-.44.09-.06.03-.13.05-.22.04-.09,0-.16-.03-.23-.06-.07-.04-.1-.08-.11-.13,0-.05.02-.09.08-.13.23-.13.52-.19.87-.18.35.01.66.1.93.25l.96.56c.27.15.41.33.44.54s-.08.37-.31.5l-.21.12c-.12.07-.27.12-.43.15-.17.03-.34.04-.52.02.02.1,0,.2-.04.3-.05.1-.14.18-.26.25Z"/>
        <path class="cls-11" d="M240.78,282.65c-.09,0-.17-.03-.23-.06-.07-.04-.1-.08-.11-.13s.02-.09.08-.13l1.16-.67c-.23-.04-.43-.11-.6-.21l-.97-.56c-.27-.15-.41-.33-.44-.54-.02-.2.08-.37.31-.5l1.04-.6c.06-.03.13-.05.22-.05.09,0,.16.02.23.06.07.04.1.08.11.14,0,.05-.02.09-.08.13l-1.04.6c-.12.07-.17.15-.15.25.01.1.09.19.22.27l.97.56c.13.08.29.12.46.13s.32-.02.44-.09l1.04-.6c.06-.03.13-.05.22-.05.09,0,.16.02.23.06.07.04.1.08.11.14,0,.05-.02.09-.08.13l-2.92,1.69c-.06.03-.13.05-.22.04Z"/>
        <path class="cls-11" d="M248.29,284.53s-.04.04-.04.06c0,.03.02.05.05.07l1.33.77c.27.15.41.33.44.54.02.2-.08.37-.31.5l-.42.24c-.23.13-.52.19-.87.18-.35-.01-.66-.1-.93-.25l-.97-.56c-.27-.15-.41-.33-.44-.54-.02-.2.08-.37.31-.5.06-.03.13-.05.22-.05.09,0,.17.03.23.06.07.04.1.08.11.13,0,.05-.02.09-.08.13-.12.07-.17.15-.15.25.01.1.09.19.22.27l.97.56c.13.08.29.12.46.13.18,0,.32-.02.44-.09l.42-.24c.12-.07.17-.15.15-.25s-.09-.19-.22-.27l-1.45-.84c-.13-.08-.21-.17-.22-.27-.01-.1.04-.18.15-.25l1.04-.6c.06-.03.13-.05.22-.05.09,0,.16.03.23.06l2.41,1.39c.07.04.1.08.11.13,0,.05-.02.09-.08.13-.06.03-.13.05-.22.04-.09,0-.17-.03-.23-.06l-2.05-1.18s-.07-.03-.12-.03-.08,0-.11.02l-.63.36Z"/>
        <path class="cls-11" d="M252.53,287.09l.96.56c.27.16.42.34.44.54.03.2-.08.37-.31.51l-.42.24c-.23.13-.52.19-.87.18-.35-.01-.66-.1-.93-.25l-.96-.56c-.27-.15-.41-.33-.44-.53-.03-.2.08-.37.31-.5l1.67-.96c.23-.13.52-.19.87-.18.35.01.66.1.93.25l.96.56c.27.16.42.34.44.54.03.2-.08.37-.31.51-.06.03-.13.05-.22.04-.09,0-.17-.03-.23-.06-.07-.04-.1-.08-.11-.13,0-.05.02-.09.08-.13.12-.07.17-.15.15-.25s-.09-.19-.22-.27l-.96-.56c-.13-.08-.29-.12-.46-.13-.18,0-.32.02-.44.09l-.53.31c.23.04.42.11.6.21ZM250.79,287.54c-.12.07-.17.15-.15.25.01.1.09.19.22.27l.96.56c.14.08.29.12.47.13.18,0,.32-.02.44-.09l.42-.24c.12-.07.17-.15.15-.25-.01-.1-.09-.19-.22-.27l-.96-.56c-.13-.08-.29-.12-.46-.13-.18,0-.32.02-.44.09l-.42.24Z"/>
        <path class="cls-11" d="M258.09,290.43l-2.86.4s-.02,0-.04,0c-.02,0-.04,0-.05,0-.01,0-.03,0-.06,0-.03,0-.05,0-.06,0-.02,0-.04,0-.06,0-.03,0-.05,0-.07,0s-.04,0-.06-.01c-.02,0-.04-.01-.06-.02-.07-.04-.11-.08-.12-.13-.01-.05.02-.09.09-.13.04-.03.15-.04.33-.05.92-.13,1.8-.26,2.65-.39.08-.01.17-.04.25-.07.09-.03.15-.06.2-.08l.07-.04c.12-.07.17-.15.15-.25-.01-.1-.09-.19-.22-.27l-.48-.28-.24-.14-.96-.56c-.07-.04-.11-.08-.11-.13,0-.05.02-.09.08-.12.06-.03.13-.05.22-.05.09,0,.17.02.23.06l.96.56.24.14.48.28c.27.15.41.33.44.54.02.2-.08.37-.31.5-.09.05-.2.1-.34.14-.14.05-.24.08-.31.09Z"/>
        <path class="cls-11" d="M261.13,293.26l-.21.12c-.23.13-.52.19-.87.18-.35-.01-.66-.1-.93-.25l-.96-.56c-.27-.15-.41-.33-.44-.54-.03-.2.08-.37.31-.5l.21-.12c.12-.07.27-.12.43-.15.17-.03.34-.04.52-.02-.03-.11-.01-.21.04-.3.05-.1.14-.18.26-.25l.21-.12c.23-.13.52-.19.87-.18.35.01.66.1.93.25l.96.56c.27.15.41.33.44.53.03.2-.08.37-.31.51l-.21.12c-.12.07-.27.12-.43.15-.17.03-.34.04-.52.02.02.1,0,.2-.04.3-.05.1-.14.18-.26.25ZM262.11,292.14c.12-.07.17-.15.15-.25-.01-.1-.09-.19-.22-.27l-.96-.56c-.13-.08-.29-.12-.46-.13-.18,0-.32.02-.44.09l-.21.12c-.12.07-.17.15-.15.25.01.1.09.19.22.27l.96.56c.13.08.29.12.46.13.18,0,.32-.02.44-.09l.21-.12ZM260.64,292.99c.12-.07.17-.15.15-.25s-.09-.19-.22-.27l-.96-.56c-.13-.08-.29-.12-.46-.13-.18,0-.32.02-.44.09l-.21.12c-.12.07-.17.15-.15.25.01.1.09.19.22.27l.96.56c.13.08.29.12.46.13.18,0,.32-.02.44-.09l.21-.12Z"/>
        <path class="cls-11" d="M266.83,297.76l-.96-.56c-.27-.15-.41-.33-.44-.54-.03-.2.08-.37.31-.5.06-.03.13-.05.22-.04.09,0,.17.03.23.06.07.04.1.08.11.13,0,.05-.02.09-.08.13-.12.07-.17.15-.15.25.01.1.09.19.22.27l.96.56c.13.08.29.12.47.13.18,0,.32-.02.44-.09l.53-.31c-.23-.04-.43-.11-.6-.22l-.96-.56c-.27-.15-.41-.33-.44-.54-.03-.2.08-.37.31-.5l.42-.24c.23-.13.52-.19.87-.18.35.01.66.1.93.25l.96.56c.27.16.42.34.44.54.03.2-.08.37-.31.51l-1.67.96c-.23.13-.52.19-.87.18-.35-.01-.66-.1-.93-.25ZM269.83,296.6c.12-.07.17-.15.15-.25-.01-.1-.09-.19-.22-.27l-.96-.56c-.13-.08-.29-.12-.46-.13-.18,0-.32.02-.44.09l-.42.24c-.12.07-.17.15-.15.25.01.1.09.19.22.27l.96.56c.13.08.29.12.47.13.18,0,.32-.02.44-.09l.42-.24Z"/>
        <path class="cls-11" d="M270.45,299.85l-1.45-.84c-.07-.04-.1-.08-.11-.13,0-.05.02-.09.08-.13.06-.03.13-.05.22-.04.09,0,.17.02.23.06l.48.28,2.09-1.21c.12-.07.17-.15.15-.25-.01-.1-.08-.19-.21-.27,0,0,0,0,0,0-.07-.04-.11-.08-.11-.13s.02-.09.08-.12c.06-.03.13-.05.22-.05.09,0,.17.02.23.06h0s0,0,0,0c.27.15.41.33.44.54.03.2-.08.37-.31.5l-2.09,1.21.48.28c.07.04.1.08.11.13,0,.05-.02.09-.08.13s-.13.05-.22.04c-.09,0-.16-.03-.23-.06Z"/>
        <path class="cls-11" d="M273.59,301.66l-.96-.56c-.27-.15-.41-.33-.44-.53-.03-.2.08-.37.31-.5l1.67-.96c.23-.13.52-.19.87-.18.35.01.66.1.93.25l.96.56c.27.15.41.33.44.54.02.2-.08.37-.31.5l-1.67.96c-.23.13-.52.19-.87.18-.35-.01-.66-.1-.93-.25ZM273.04,300.87l.96.56c.08.05.17.08.28.1l.32-2.12-1.63.94c-.12.07-.17.15-.15.25.01.1.09.19.22.27ZM276.51,299.98l-.96-.56c-.08-.05-.17-.08-.28-.1l-.32,2.12,1.63-.94c.12-.07.17-.15.15-.25-.01-.1-.09-.19-.22-.27Z"/>
        <path class="cls-11" d="M277.2,303.75l-1.45-.84c-.07-.04-.1-.08-.11-.13,0-.05.02-.09.08-.13.06-.03.13-.05.22-.04.09,0,.17.02.23.06l.48.28,2.09-1.21c.12-.07.17-.15.15-.25-.01-.1-.08-.19-.21-.27,0,0,0,0,0,0-.07-.04-.1-.08-.11-.13,0-.05.02-.09.08-.12.06-.03.13-.05.22-.05.09,0,.17.02.23.06h0s0,0,0,0c.27.15.41.33.44.54.03.2-.08.37-.31.51l-2.09,1.21.48.28c.07.04.1.08.11.13,0,.05-.02.09-.08.13-.06.03-.13.05-.22.04-.09,0-.16-.03-.23-.06Z"/>
        <path class="cls-11" d="M283.95,307.65l-1.45-.84c-.07-.04-.1-.08-.11-.13,0-.05.02-.09.08-.13.06-.03.13-.05.22-.04.09,0,.17.02.23.06l.48.28,2.09-1.21c.12-.07.17-.15.15-.25-.01-.1-.08-.19-.21-.27,0,0,0,0,0,0-.07-.04-.11-.08-.11-.13s.02-.09.08-.12c.06-.03.13-.05.22-.05.09,0,.17.02.23.06h0s0,0,0,0c.27.15.41.33.44.54.03.2-.08.37-.31.5l-2.09,1.21.48.28c.07.04.1.08.11.13,0,.05-.02.09-.08.13-.06.03-.13.05-.22.04-.09,0-.16-.03-.23-.06Z"/>
        <path class="cls-11" d="M288.34,308.74l-.96-.56c-.13-.08-.29-.12-.46-.13-.18,0-.32.02-.44.09l-.31.18s-.04.04-.04.06c0,.03.02.05.05.07l2.05,1.19c.07.04.1.08.11.13,0,.05-.02.09-.08.13-.06.03-.13.05-.22.04-.09,0-.16-.03-.23-.06l-2.42-1.39c-.07-.04-.1-.08-.11-.13,0-.05.02-.09.08-.13l.63-.36c.23-.13.52-.19.87-.18.35.01.66.1.93.25l.96.56c.13.08.29.12.47.13.18,0,.32-.02.44-.09l.42-.24c.12-.07.17-.15.15-.25-.01-.1-.09-.19-.22-.27l-.96-.56c-.13-.08-.29-.12-.46-.13-.18,0-.32.02-.44.09-.06.03-.13.05-.22.05-.09,0-.16-.02-.23-.06-.07-.04-.1-.08-.11-.13,0-.05.02-.09.08-.13.23-.13.52-.19.87-.18.35.01.66.1.93.25l.96.56c.27.16.42.33.44.54.03.2-.08.37-.31.5l-.42.24c-.23.13-.52.19-.87.18s-.66-.1-.93-.25Z"/>
        <path class="cls-11" d="M290.7,311.55l-1.45-.84c-.07-.04-.1-.08-.11-.13,0-.05.02-.09.08-.13.06-.03.13-.05.22-.04.09,0,.17.02.23.06l.48.28,2.09-1.21c.12-.07.17-.15.15-.25-.01-.1-.08-.19-.21-.27,0,0,0,0,0,0-.07-.04-.11-.08-.11-.13s.02-.09.08-.12c.06-.03.13-.05.22-.05.09,0,.17.02.23.06h0s0,0,0,0c.27.15.41.33.44.54.03.2-.08.37-.31.5l-2.09,1.21.48.28c.07.04.1.08.11.13,0,.05-.02.09-.08.13-.06.03-.13.05-.22.04-.09,0-.16-.03-.23-.06Z"/>
        <path class="cls-11" d="M295.85,313.31l-.21.12c-.23.13-.52.19-.87.18-.35-.01-.66-.1-.93-.25l-.96-.56c-.27-.15-.41-.33-.44-.53-.03-.2.08-.37.31-.5.06-.03.13-.05.22-.05.09,0,.16.02.23.06.07.04.1.08.11.14,0,.05-.02.09-.08.13-.12.07-.17.15-.15.25.01.1.09.19.22.27l.96.56c.13.08.29.12.46.13.18,0,.32-.02.44-.09l.21-.12c.12-.07.17-.15.15-.25s-.09-.19-.22-.27l-.24-.14c-.07-.04-.11-.08-.11-.13,0-.05.02-.09.08-.12.06-.03.13-.05.22-.05.09,0,.17.02.23.06l.24.14c.13.08.29.12.46.13s.32-.02.44-.09l.21-.12c.12-.07.17-.15.15-.25-.01-.1-.09-.19-.22-.27l-.96-.56c-.13-.08-.29-.12-.46-.13-.18,0-.32.02-.44.09-.06.03-.13.05-.22.04-.09,0-.17-.03-.23-.06-.07-.04-.1-.08-.11-.13,0-.05.02-.09.08-.13.23-.13.52-.19.87-.18.35.01.66.1.93.25l.96.56c.27.15.41.33.44.54.02.2-.08.37-.31.5l-.21.12c-.12.07-.27.12-.43.15-.17.03-.34.04-.52.02.02.1,0,.2-.04.3-.05.1-.14.18-.26.25Z"/>
      </g>
      <g>
        <g>
          <path class="cls-11" d="M280.07,313.15l-.85-.49s-.06-.05-.06-.08c0-.03.01-.05.04-.07.03-.02.08-.03.13-.03.05,0,.1.01.13.04l.28.16,1.22-.7c.07-.04.1-.09.09-.15,0-.06-.05-.11-.12-.16,0,0,0,0,0,0-.04-.02-.06-.05-.06-.08,0-.03.01-.05.05-.07.03-.02.08-.03.13-.03.05,0,.1.01.14.04h0s0,0,0,0c.16.09.24.19.26.31.01.12-.05.22-.18.29l-1.22.7.28.16s.06.05.06.08c0,.03-.01.05-.05.07-.03.02-.08.03-.13.03-.05,0-.1-.02-.13-.04Z"/>
          <path class="cls-11" d="M282.63,313.79l-.56-.33c-.08-.04-.17-.07-.27-.07-.1,0-.19.01-.25.05l-.18.11s-.02.02-.02.04c0,.02.01.03.03.04l1.2.69s.06.05.06.08c0,.03-.01.06-.04.07-.03.02-.08.03-.13.03-.05,0-.1-.01-.13-.04l-1.41-.81s-.06-.05-.06-.08c0-.03.01-.05.05-.07l.37-.21c.13-.08.3-.11.51-.1.21,0,.39.06.54.15l.56.33c.08.05.17.07.27.07.1,0,.19-.01.26-.05l.24-.14c.07-.04.1-.09.09-.15,0-.06-.05-.11-.13-.16l-.56-.33c-.08-.04-.17-.07-.27-.07-.1,0-.19.01-.25.05-.03.02-.08.03-.13.03-.05,0-.1-.01-.13-.04-.04-.02-.06-.05-.07-.08,0-.03.01-.05.05-.07.13-.08.3-.11.51-.1.21,0,.39.06.54.15l.56.33c.16.09.24.2.26.31.01.12-.04.22-.18.29l-.24.14c-.13.08-.3.11-.51.1-.2,0-.39-.06-.54-.15Z"/>
          <path class="cls-11" d="M286.01,315.74l-.56-.33c-.08-.04-.17-.07-.27-.07-.1,0-.19.01-.25.05l-.18.11s-.02.02-.02.04.01.03.03.04l1.2.69s.06.05.06.08c0,.03-.01.05-.04.07-.03.02-.08.03-.13.03-.05,0-.1-.02-.13-.04l-1.41-.81s-.06-.05-.06-.08c0-.03.01-.05.05-.07l.37-.21c.13-.08.3-.11.51-.1.21,0,.39.06.54.15l.56.33c.08.04.17.07.27.07.1,0,.19-.01.26-.05l.24-.14c.07-.04.1-.09.09-.15s-.05-.11-.13-.16l-.56-.33c-.08-.04-.17-.07-.27-.07-.1,0-.19.01-.25.05-.03.02-.08.03-.13.03-.05,0-.1-.01-.13-.04-.04-.02-.06-.05-.07-.08,0-.03.01-.05.05-.07.13-.08.3-.11.51-.1.21,0,.39.06.54.15l.56.33c.16.09.24.2.26.31.01.12-.05.22-.18.29l-.24.14c-.13.08-.3.11-.51.1-.21,0-.39-.06-.54-.15Z"/>
          <path class="cls-11" d="M288.71,317.44l-.12.07c-.13.08-.3.11-.51.1-.2,0-.39-.06-.54-.15l-.56-.33c-.16-.09-.24-.19-.26-.31-.01-.12.05-.22.18-.29.03-.02.08-.03.13-.03.05,0,.1.01.14.04.04.02.06.05.06.08s-.01.05-.04.07c-.07.04-.1.09-.09.15,0,.06.05.11.13.16l.56.33c.08.04.17.07.27.07.1,0,.19-.01.25-.05l.12-.07c.07-.04.1-.09.09-.15s-.05-.11-.13-.16l-.14-.08s-.06-.05-.07-.08c0-.03.01-.05.05-.07s.08-.03.13-.03c.05,0,.1.01.14.04l.14.08c.08.04.17.07.27.07.1,0,.19-.01.25-.05l.12-.07c.07-.04.1-.09.09-.15,0-.06-.05-.11-.13-.16l-.56-.33c-.08-.04-.17-.07-.27-.07-.1,0-.19.01-.25.05-.03.02-.08.03-.13.03s-.1-.01-.14-.04c-.04-.02-.06-.05-.06-.08,0-.03.01-.05.05-.07.13-.08.3-.11.51-.1.21,0,.39.06.54.15l.56.33c.16.09.24.19.26.31.01.12-.04.22-.18.29l-.12.07c-.07.04-.16.07-.25.09-.1.02-.2.02-.3.01.01.06,0,.12-.02.18-.03.06-.08.11-.15.15Z"/>
        </g>
        <path class="cls-11" d="M282.82,315.08s0,0,0-.01c-.02-.05,0-.1.05-.12l2.45-1.02s.11,0,.12.05c.02.05,0,.1-.05.12l-2.45,1.02s-.09,0-.12-.04Z"/>
      </g>
      <g>
        <path class="cls-25" d="M312.12,303.72l-8.19,4.73c-.61.35-1.61.35-2.22,0l-9.99-5.69c-.61-.35-.61-.93,0-1.28l8.19-4.73c.61-.35,1.61-.35,2.22,0,2.71,1.56,7.28,4.13,9.99,5.69.61.35.61.93,0,1.28Z"/>
        <g class="cls-26">
          <path class="cls-6" d="M312.12,303.72l-8.19,4.73c-.61.35-1.61.35-2.22,0l-9.99-5.69c-.61-.35-.61-.93,0-1.28l8.19-4.73c.61-.35,1.61-.35,2.22,0,2.71,1.56,7.28,4.13,9.99,5.69.61.35.61.93,0,1.28Z"/>
          <polygon class="cls-10" points="311.81 306.15 312.56 306.01 296.2 296.63 295.44 296.78 311.81 306.15"/>
          <polygon class="cls-10" points="301.4 304.81 302.15 304.95 306.32 302.55 305.57 302.4 301.4 304.81"/>
          <polygon class="cls-10" points="297.5 302.65 298.26 302.79 302.42 300.39 301.67 300.25 297.5 302.65"/>
          <polygon class="cls-10" points="307.63 308.56 308.38 308.42 292.02 299.04 291.26 299.19 307.63 308.56"/>
        </g>
      </g>
      <path class="cls-21" d="M259.89,302.69l-39.11-22.58c-.68-.39-1.78-.39-2.46,0l-.17.1c-.68.39-.68,1.03,0,1.42l39.11,22.58c.68.39,1.78.39,2.46,0l.17-.1c.68-.39.68-1.03,0-1.42Z"/>
      <g>
        <path class="cls-10" d="M256.26,259.35c.08-.03.15-.04.23-.04.08,0,.14.02.19.05l.62.36c.06.03.09.07.09.12,0,.05-.03.09-.09.12-.22.11-.49.2-.78.27-.3.07-.62.1-.97.09-.35,0-.72-.06-1.1-.16-.39-.1-.78-.26-1.17-.49-.35-.2-.61-.41-.77-.63-.17-.22-.25-.43-.25-.65,0-.21.07-.43.23-.64.15-.21.37-.41.66-.6.18-.12.39-.24.62-.38.23-.13.45-.25.66-.36.33-.16.67-.29,1.03-.38.36-.09.73-.13,1.1-.13.37,0,.75.05,1.12.15.37.1.73.24,1.08.45.4.23.68.45.85.68.17.22.27.44.28.64.02.2-.04.39-.16.56-.12.17-.28.32-.46.45-.06.04-.13.06-.21.05-.08,0-.15-.02-.21-.05l-.62-.36c-.05-.03-.08-.07-.1-.11-.01-.05,0-.09.07-.13.08-.07.15-.15.19-.23.04-.09.05-.18.03-.28-.02-.1-.08-.21-.18-.32-.1-.11-.25-.23-.45-.34-.2-.11-.4-.2-.61-.25-.21-.05-.41-.07-.61-.07-.2,0-.4.03-.59.08-.19.05-.38.12-.54.2-.2.11-.42.23-.65.36-.23.13-.44.26-.63.38-.15.1-.27.21-.36.32-.09.11-.13.22-.13.34,0,.12.04.23.13.35.09.12.23.24.43.35.2.11.4.2.59.26.2.06.38.09.56.11.18.01.34,0,.49-.02.15-.02.29-.06.4-.11Z"/>
        <path class="cls-10" d="M264.01,259.62c.63.37.97.73,1,1.09.04.36-.21.69-.73.99-.37.21-.77.35-1.2.4-.43.05-.88.02-1.33-.1l-.83,1.69s-.04.05-.06.06c-.04.03-.1.04-.17.04s-.12-.01-.17-.04l-.65-.37c-.1-.06-.15-.12-.15-.17s.01-.1.03-.14l.78-1.6-1.01-.59-1.78,1.02c-.06.03-.12.05-.21.05s-.15-.02-.2-.05l-.62-.36c-.06-.03-.08-.07-.08-.12s.03-.09.08-.12l4.92-2.84c.06-.03.12-.05.21-.05.08,0,.15.02.21.05l1.97,1.14ZM260.46,260.35l1.1.64c.29.17.57.27.85.31.27.04.55-.02.84-.18.29-.16.39-.32.31-.48-.08-.15-.26-.32-.55-.48l-1.1-.64-1.45.84Z"/>
        <path class="cls-10" d="M266.11,265.9c.06.03.08.07.08.12s-.03.09-.08.12l-.54.31c-.06.03-.12.05-.21.05s-.15-.02-.2-.05l-3.35-1.93c-.06-.03-.08-.07-.08-.12s.03-.09.08-.12l4.92-2.84c.06-.03.12-.05.21-.05.08,0,.15.02.21.05l3.28,1.9c.06.03.08.07.08.12s-.03.09-.08.12l-.54.31c-.06.03-.12.05-.21.05s-.15-.02-.21-.05l-2.46-1.42-1.21.7,2.29,1.32c.06.03.08.07.08.12s-.03.09-.08.12l-.54.31c-.06.03-.12.05-.21.05s-.15-.02-.21-.05l-2.29-1.32-1.27.73,2.52,1.46Z"/>
        <path class="cls-10" d="M273.73,265.24c.38.22.65.43.83.65.18.22.27.43.27.64,0,.21-.08.42-.24.63s-.39.41-.69.61c-.36.23-.73.45-1.13.65-.34.17-.69.31-1.05.4-.36.09-.72.14-1.09.14s-.73-.05-1.11-.15c-.37-.1-.74-.25-1.11-.47l-1.92-1.11c-.06-.03-.08-.07-.08-.12s.03-.09.08-.12l4.92-2.84c.06-.03.13-.05.21-.05s.15.02.21.05l1.88,1.09ZM272.88,267.17c.15-.1.27-.2.36-.32.09-.11.13-.23.13-.35s-.05-.24-.15-.37c-.1-.12-.26-.25-.48-.38l-1.02-.59-3.43,1.98,1.06.61c.21.12.42.21.63.26.21.05.42.08.62.08s.4-.03.6-.08c.19-.05.38-.12.55-.21.4-.21.77-.42,1.13-.65Z"/>
        <path class="cls-10" d="M271.88,270.33c-.06-.03-.08-.07-.08-.12s.03-.09.08-.12l4.92-2.84c.06-.03.13-.05.21-.05.08,0,.15.02.21.05l.62.36c.06.03.08.07.08.12,0,.05-.03.09-.08.12l-4.92,2.84c-.06.03-.12.05-.21.05-.08,0-.15-.02-.21-.05l-.62-.36Z"/>
        <path class="cls-10" d="M282.78,270.46c.06.03.08.07.08.12s-.03.09-.08.12l-.54.31c-.06.03-.12.05-.2.05s-.15-.02-.21-.05l-1.37-.79-4.18,2.41c-.06.03-.12.05-.21.05-.08,0-.15-.02-.21-.05l-.62-.36c-.06-.03-.08-.07-.08-.12,0-.05.03-.09.09-.12l4.18-2.41-1.37-.79c-.06-.03-.08-.07-.08-.12,0-.05.03-.09.08-.12l.54-.31c.06-.03.12-.05.21-.05.08,0,.15.02.21.05l3.77,2.18Z"/>
        <path class="cls-10" d="M284.93,275.91c.08-.03.15-.05.23-.04.08,0,.14.02.19.05l.62.36c.06.03.09.07.09.12s-.03.09-.09.12c-.22.11-.48.2-.78.27-.3.07-.62.1-.97.09-.35,0-.72-.06-1.1-.16-.39-.1-.78-.26-1.17-.49-.35-.2-.61-.41-.77-.63-.17-.22-.25-.43-.25-.65,0-.22.07-.43.23-.64.15-.21.37-.41.66-.6.18-.12.39-.24.62-.38.23-.13.45-.25.66-.36.33-.16.67-.29,1.03-.38.36-.09.73-.13,1.1-.13.37,0,.75.05,1.12.15.37.1.73.24,1.08.45.4.23.68.45.85.68.17.22.27.44.28.64.02.2-.04.39-.16.56s-.28.32-.46.45c-.06.04-.12.06-.2.05-.08,0-.15-.02-.21-.05l-.62-.36c-.05-.03-.08-.07-.1-.11-.01-.05,0-.09.07-.13.08-.07.15-.15.19-.23.04-.09.05-.18.03-.28-.02-.1-.08-.21-.18-.32-.1-.11-.25-.23-.45-.34-.2-.11-.4-.2-.61-.25-.21-.05-.41-.07-.61-.07-.2,0-.4.03-.59.08-.19.05-.38.12-.54.2-.2.11-.42.23-.65.36-.23.13-.44.26-.63.38-.15.1-.27.2-.36.32-.09.11-.13.22-.13.34s.04.23.13.35c.09.12.23.24.43.35.2.11.4.2.59.26.2.06.38.09.56.11.18.01.34,0,.49-.02.15-.02.29-.06.4-.11Z"/>
        <path class="cls-10" d="M292.96,276.34c.08.05.12.09.12.14,0,.05-.03.11-.09.17l-2.95,3.86s-.03.02-.05.04c-.06.03-.12.05-.21.05s-.15-.02-.2-.05l-.55-.32c-.1-.06-.15-.11-.15-.16,0-.05.02-.09.04-.12l.52-.68-2.41-1.39-1.17.3c-.06.02-.13.02-.21.02-.08,0-.18-.03-.28-.09l-.55-.32c-.06-.03-.08-.07-.08-.12s.03-.09.08-.12c.02-.01.04-.02.06-.03l6.68-1.7c.12-.03.22-.05.3-.05.08,0,.17.02.25.07l.84.48ZM290.03,278.51l1.33-1.74-3.01.77,1.68.97Z"/>
        <path class="cls-10" d="M297.99,279.24c.63.37.97.73,1,1.09.04.36-.21.69-.73,1-.37.21-.77.35-1.2.4-.43.05-.88.02-1.33-.1l-.83,1.69s-.04.05-.06.06c-.05.03-.1.04-.17.04s-.12-.01-.17-.04l-.65-.37c-.1-.06-.15-.12-.15-.17,0-.06,0-.1.03-.14l.78-1.6-1.01-.59-1.78,1.03c-.06.03-.12.05-.21.05s-.15-.02-.2-.05l-.62-.36c-.06-.03-.08-.07-.08-.12s.03-.09.08-.12l4.92-2.84c.06-.03.12-.05.21-.05s.15.02.21.05l1.97,1.14ZM294.44,279.97l1.1.64c.29.17.57.27.85.31s.55-.02.84-.18c.28-.16.39-.32.31-.48-.08-.16-.26-.32-.55-.48l-1.1-.64-1.45.84Z"/>
        <path class="cls-10" d="M303.09,282.21c.38.22.65.43.83.65.18.22.27.43.27.65,0,.21-.08.42-.24.63-.16.21-.39.41-.69.6-.36.23-.73.45-1.13.65-.34.17-.69.31-1.05.4-.36.09-.72.14-1.09.14s-.73-.05-1.11-.15c-.37-.1-.74-.25-1.1-.47l-1.92-1.11c-.06-.03-.08-.07-.08-.12s.03-.09.08-.12l4.92-2.84c.06-.03.12-.05.21-.05.08,0,.15.02.21.05l1.88,1.09ZM302.24,284.15c.15-.1.27-.21.36-.32.09-.11.13-.23.13-.35s-.05-.24-.15-.37c-.1-.12-.26-.25-.48-.38l-1.02-.59-3.43,1.98,1.06.61c.21.12.42.21.63.26.21.05.42.08.62.08s.4-.03.6-.08c.19-.05.38-.12.55-.21.4-.21.77-.42,1.13-.65Z"/>
      </g>
    </g>
    <g id="Character">
      <g>
        <path class="cls-9" d="M89.61,77.44c2.2,4.73,5.96,12.55,8.02,16.89l8.07-9.5h6.78s-8.16,17.39-13.02,21.43c-1.82,1.52-4.12,1.34-5.57-.34s-3.27-4.15-5.46-7.53c-3.85-5.95-5.57-8.52-5.57-8.52l-4.85-20.4c4.25-.34,8.56,1.39,11.61,7.96Z"/>
        <path class="cls-10" d="M77.22,69.44c2.59-.1,5.41-.42,7.88,1.73,1.63,1.42,3.71,3.66,5.39,7.58,1.67,3.93,4.26,8.9,4.26,8.9,0,0-1.8,2.8-4.84,5.05-3.03,2.25-5.8,2.44-5.8,2.44l-6.88-25.71Z"/>
        <path class="cls-12" d="M77.22,69.44c2.59-.1,5.41-.42,7.88,1.73,1.63,1.42,3.71,3.66,5.39,7.58,1.67,3.93,4.26,8.9,4.26,8.9,0,0-1.8,2.8-4.84,5.05-3.03,2.25-5.8,2.44-5.8,2.44l-6.88-25.71Z"/>
        <path class="cls-15" d="M97.63,94.33s-1.95,2.33-2.48,3.38c0,0,.87-3.2,2.05-4.3l.43.91Z"/>
        <g>
          <path class="cls-21" d="M114.52,72.2h.01s-.64-.67-.64-.67h0c-.15-.13-.39-.2-.71-.14l-7.81,1.33c-.72.12-1.56.76-1.87,1.43l-7.02,15.27c-.16.35-.14.64.02.82h0s.66.7.66.7h0c.14.14.39.2.72.15l7.81-1.33c.72-.12,1.56-.76,1.87-1.43,1.38-3,5.64-12.27,7.02-15.27.17-.38.13-.68-.06-.85Z"/>
          <path class="cls-16" d="M97.12,90.09l7.02-15.27c.31-.67,1.14-1.31,1.87-1.43l7.81-1.33c.72-.12,1.06.32.76.99-1.38,3-5.64,12.27-7.02,15.27-.31.67-1.14,1.31-1.87,1.43l-7.81,1.33c-.72.12-1.06-.32-.76-.99Z"/>
          <path class="cls-3" d="M105.13,73.75c-.43.27-.81.67-1,1.07l-7.02,15.26c-.15.34-.15.62,0,.8l-.62-.65h0c-.17-.18-.19-.47-.03-.82l7.02-15.27c.17-.38.52-.74.92-1.02l.72.62Z"/>
        </g>
        <path class="cls-9" d="M110.82,87.3c3.23-3.71,3.14-8.36,1.66-9.69l-.99,2.14s-4.94,1.1-7.32.92-4.32-.75-4.97-.29c-1.38.97-1.78,5.12,2.18,6.62,3.36,1.28,9.45.3,9.45.3Z"/>
      </g>
      <g id="Botom">
        <g>
          <path class="cls-9" d="M53.99,209.17c2.09,1.12,4.63,1.03,7.11,0l1.03-13.54-8.15,1.07v12.46Z"/>
          <path class="cls-9" d="M78.97,201.08c1.76,3.81,4.94,2.76,8.53.32l-.63-13.6h-8.65s.75,13.29.75,13.29Z"/>
          <g>
            <path class="cls-16" d="M69.23,221.98c.23.22.16,1.69-.09,2.09-.27.43-1.83,1.76-4.65,1.96-2.7.19-5.1-.17-6.69-1.18-1.58-1-2.35-2.11-2.5-3.65s.02-3.02-.71-4.2c-.68-1.09-1.75-2.32-1.99-2.91-.51-1.29-.02-3.13-.02-3.13l16.65,11.02Z"/>
            <path class="cls-3" d="M61.83,208.57c.05.57.14,1.14.33,1.71.39,1.19.98,2.31,1.65,3.38.34.55.71,1.09,1.12,1.59.82.97,1.83,1.77,2.69,2.7.86.93,1.6,2.06,1.66,3.31.11,2.11-2.18,2.83-3.95,3.15-1.89.34-3.9.23-5.74-.29-2.05-.58-3.53-2.17-3.87-4.21-.1-.59-.06-1.19-.13-1.78-.16-1.35-.86-2.58-1.64-3.7-.46-.65-.95-1.28-1.26-2.01-.55-1.31-.11-2.78.24-4.09.3-1.13.65-2.4,1.05-2.29,0,.23-.02.47.09.68.13.25.23.38.31.67.09.3.18.59.32.87.21.42.52.81.94,1.04.03-.8.05-1.6.08-2.39,0-.25.02-.51.18-.7.16-.19.43-.25.68-.29,1.49-.28,3.02-.56,4.52-.37.23.03.48.08.61.27.11.15.11.35.1.54-.02.77-.05,1.52,0,2.26Z"/>
            <path class="cls-7" d="M64.1,214.1c-.79-.59-2.55-.6-3.52-.49-1.21.13-2.19.55-2.74.96-.25.18-.59.15-.81-.06h0c-.26-.26-.24-.68.06-.9.59-.43,1.65-1.04,3.09-1.14,2.37-.17,3.07.24,3.07.24,0,0,1.08.7.85,1.4Z"/>
            <path class="cls-7" d="M65.91,216.27c-.99-.59-2.93-.5-3.9-.4-1.21.13-2.11.6-2.67,1.01-.25.18-.59.15-.81-.06h0c-.26-.26-.24-.68.06-.9.59-.43,1.72-1.13,3.15-1.23,2.37-.17,2.99.32,2.99.32,0,0,1,.39,1.17,1.26Z"/>
            <path class="cls-7" d="M59.23,210.19c1.64-.17,2.34.01,2.98.25.42.23.69.9.42,1.06-.53-.29-1.48-.42-2.65-.36-.78.03-1.77.35-2.57.71-.2.09-.44.22-.65.33-.28.16-.65.05-.78-.24h0c-.12-.24-.03-.54.21-.68.57-.35,1.71-.93,3.03-1.07Z"/>
          </g>
          <g>
            <path class="cls-16" d="M101.67,209.78c.22.46.16,1.33-.11,1.88-.26.55-3.14,2.17-7.02,1.91-3.88-.26-6.54-1.82-8.02-2.8-1.48-.98-3.02-1.16-4.94-1.27-1.92-.11-4.44-1.07-4.87-1.97-.42-.9.06-2.45.06-2.45l24.89,4.7Z"/>
            <path class="cls-3" d="M86.07,197.84c.34-.12.67-.25,1.01-.37.18-.07.39-.14.57-.07.25.09.35.39.41.64.14.52.19,1.2.42,1.69.21.44.73.84,1.09,1.14.94.8,2.02,1.42,3.11,2,1.27.68,2.51,1.21,3.82,1.8,1.33.6,3.11.97,4.15,1.67,1.52,1.03,1.72,3.6-.02,4.62-1.5.88-5.43,1.83-9.56.66-2.25-.64-4.75-3.04-7.7-3.27-1.88-.15-5.43-.67-6.64-2.1-.45-.63.15-2.64.64-4.37.53-1.89.74-4.84,1.36-4.68.04.63.59.99.92,1.52.29.47.46,1,.67,1.5.22.5.51,1,.98,1.29s1.14.31,1.52-.09c.55-.57.23-1.57.63-2.26.27-.46.82-.68,1.32-.87.43-.16.86-.32,1.29-.47Z"/>
            <path class="cls-7" d="M90.93,201.86s-.27-.72-1.39-.93c-.85-.16-2.36.47-3.3,1.24-.38.32-.33.92.1,1.16h0c.26.14.58.11.8-.09.61-.54,1.99-1.51,3.79-1.38Z"/>
            <path class="cls-7" d="M93.58,203.34s-.55-.86-1.64-.85c0,0-2.23.06-3.61,1.35-.35.33-.33.89.09,1.12h0c.25.14.56.1.77-.09.62-.56,1.87-1.72,4.39-1.53Z"/>
            <path class="cls-7" d="M96.5,204.68s-.62-.78-1.71-.76c0,0-2.08.08-3.46,1.36-.35.33-.33.89.09,1.12h0c.25.14.56.1.77-.09.62-.56,1.78-1.82,4.3-1.63Z"/>
          </g>
          <path class="cls-3" d="M55.03,107.29c-.49,14.81-.45,50.64-.45,50.64-.16,1.84-.9,5.63-1.52,13-.8,9.59.93,30.69.93,30.69,0,0,3.52,1.8,7.73.04,0,0,4.63-30.07,6.1-39.56,1.29-8.34,3.82-27.06,3.82-27.06l2.92,24.35s-.7,5.76.3,12.17c.68,4.37,3.7,22.31,3.7,22.31,0,0,3.99,1.22,8.57-.33,0,0,.29-31.09.36-35.14.09-4.61-2.04-54.78-2.04-54.78l-30.43,3.65Z"/>
          <path class="cls-16" d="M71.64,135.04l2.19-12.14s6.07-.53,9.43-3.92c0,0-.6,3.32-8.23,5.31l-2.19,12.28,1.72,22.81-2.92-24.35Z"/>
        </g>
      </g>
      <g>
        <path class="cls-14" d="M84.71,80.84c-.65-4.74-1.28-11.12-8.63-11.41l-9.48.45c-2.33.61-11.42,1.69-11.42,1.69l-.17,20.57s-.58,14.83-.4,22.77c6.79,4.31,21.56,5.7,30.85-1.34.28-6.55-.1-28.03-.75-32.73Z"/>
        <g>
          <g>
            <g>
              <path class="cls-3" d="M85.35,42.44c.1-.78-.42-1.56-1.12-1.92-.7-.37-1.54-.38-2.31-.22.15-1.18-.66-2.32-1.72-2.78-1.28-.55-2.42-.33-3.52.53.22-.84-.55-1.67-1.4-1.84-.85-.17-1.71.14-2.51.46-1.19.48-2.36,1.01-3.57,1.44-2.13.76-4.41,1.2-6.33,2.4-.45.28-.89.61-1.2,1.05-.43.61-.56,1.39-.51,2.14.02.25.06.49.12.73-.15-.15-.32-.29-.52-.39-.92-.46-2.03-.05-2.47.91l2.29,1.14c-.52.12-1.15.39-1.7.98-1.15,1.25-.36,5.03,1.24,8.7,0,0,1.66,6.73,2.28,7.82.61,1.09,1.82,1.37,1.82,1.37l-.22-4.11,17.06-1.53-1.71-1.17c3.28-1.56,5.5-4.94,5.37-8.8-.05-1.57-.49-3.04-1.22-4.32.91-.73,1.74-1.64,1.86-2.59Z"/>
              <path class="cls-9" d="M71.48,47.43c-1.57-.19-3.13-.44-4.68-.69-.14-.02-.3-.04-.41.05-.07.06-.1.15-.13.23-1.02,2.99-1,6.23-1.81,9.28-.07.28-.25.75-.59.79-.6.07-1.02-.47-1.27-.93-.19-.35-.39-.7-.58-1.05-.12-.22-.27-.36-.43-.54-.73-.68-2.9-1.5-3.9.8-1.04,2.38,1.14,5.42,2.89,5.9,3,.84,3.39-1.09,3.39-1.09l.58,10.72c2.66,2.78,11.4,1.81,9.67-.6l-.11-3.26s2.71.32,4.02.08c2.18-.41,3.5-2.18,4.08-4.57.94-3.84.84-8.53.1-14.37-.09-.74-.3-1.4-.54-2.01-3.06,1.69-6.78,1.66-10.26,1.24Z"/>
            </g>
            <path class="cls-15" d="M74.08,67.06s-4.91-.82-6.65-1.68c-1.16-.57-2.14-1.59-2.44-2.26,0,0,.37,1.44,1.43,2.71,1.3,1.56,7.7,2.52,7.7,2.52l-.04-1.3Z"/>
          </g>
          <g>
            <path class="cls-16" d="M73.38,54.96c.02.6-.43,1.1-1.01,1.12-.58.02-1.06-.46-1.08-1.06-.02-.6.43-1.1,1.01-1.12.58-.02,1.06.46,1.08,1.06Z"/>
            <path class="cls-16" d="M71.91,50.59l-2.2.95c-.25-.63.04-1.35.65-1.61.61-.26,1.3.04,1.55.67Z"/>
            <path class="cls-5" d="M72.11,60.66l3.44,1.17c-.31.99-1.32,1.52-2.27,1.2-.95-.32-1.47-1.38-1.17-2.37Z"/>
            <path class="cls-15" d="M73.28,63.03c-.61-.21-1.04-.71-1.19-1.31.19-.09.4-.14.63-.14.83,0,1.51.66,1.54,1.49-.31.08-.64.07-.97-.04Z"/>
            <path class="cls-16" d="M82.1,51.48l-2.19-.84c.21-.6.88-.9,1.48-.66.6.23.92.9.71,1.5Z"/>
            <path class="cls-16" d="M81.34,54.96c.02.61-.44,1.11-1.02,1.13-.58.02-1.07-.46-1.09-1.06-.02-.61.44-1.11,1.02-1.13.58-.02,1.07.46,1.09,1.06Z"/>
            <path class="cls-15" d="M76.21,54.63l.16,5.79,3.23-.93-3.01-4.91c-.14-.01-.26,0-.38.05Z"/>
          </g>
        </g>
        <path class="cls-10" d="M85.86,86.75c-.25-6.01-.72-11.31-2.96-14.13-2.24-2.82-3.44-3.36-8.74-3.27v.36c.63.06,1.17.36,1.52.87.97,1.46,2.95,4.78,4.08,9.06,1.54,5.84,1.8,18.87,1.88,25.9.08,7.02,0,12.68,0,12.68,0,0,3.55-.83,4.65-2.61,0,0-.17-22.85-.42-28.86Z"/>
        <path class="cls-17" d="M85.86,86.75c-.25-6.01-.72-11.31-2.96-14.13-2.24-2.82-3.44-3.36-8.74-3.27v.36c.63.06,1.17.36,1.52.87.97,1.46,2.95,4.78,4.08,9.06,1.54,5.84,1.8,18.87,1.88,25.9.08,7.02,0,12.68,0,12.68,0,0,3.55-.83,4.65-2.61,0,0-.17-22.85-.42-28.86Z"/>
        <path class="cls-10" d="M67.53,77.18c-.76-3.2-2.32-5.31-3.02-6.94l-6.63.94c-2.44,1.13-5.62,3.82-5.38,6.49l1.74,19.68-.48,18.64c3.79,5.89,15.09,4.8,15.09,4.8,0,0,.32-8.38-.04-24.58-.2-9.08-.31-14.95-1.27-19.03Z"/>
        <path class="cls-17" d="M67.53,77.18c-.76-3.2-2.32-5.31-3.02-6.94l-6.63.94c-2.44,1.13-5.62,3.82-5.38,6.49l1.74,19.68-.48,18.64c3.79,5.89,15.09,4.8,15.09,4.8,0,0,.32-8.38-.04-24.58-.2-9.08-.31-14.95-1.27-19.03Z"/>
        <path class="cls-3" d="M67.84,78.76c-.44-2.06-.67-5.88-1.03-6.65-.36-.77-2.33-2.3-2.41-3.33l-.04-.67s-.8.09-1.66.86c-.62.55-2.45,1.83-2.45,1.83,0,0,.18,1.81,1.38,3.53,1.08,1.56,2.6,2.58,2.84,2.2.22-.36.2-.98.59-1.89.5-1.14.62-1.62,1.15-.5.42.9,1.63,4.61,1.63,4.61Z"/>
        <path class="cls-3" d="M79.15,77.64c.54,1.73-.88-6-1.8-7.36s-3.26-1.9-3.26-1.9l.1,1.67s.76.09,1.5,1.04c.59.76,2.73,4.17,3.47,6.54Z"/>
        <g>
          <path class="cls-10" d="M68.08,80.4c-4.48.42-9.54,1.21-15.13,2.37l.05.56c5.6-1.16,10.67-1.95,15.14-2.37-.02-.19-.04-.37-.06-.55Z"/>
          <path class="cls-10" d="M85.39,80.28c-1.65-.19-3.53-.37-5.59-.47.05.18.09.37.13.56,2.04.1,3.9.27,5.52.47-.02-.19-.04-.38-.06-.57Z"/>
        </g>
      </g>
      <path class="cls-9" d="M40.13,97.71c7.08-17.99,8.64-23.59,13.63-25.66,1.92-.8,4.12-.87,4.12-.87,1.23,2.25,3.04,10.97-2.88,17.02,0,0-4.29,10.59-6.45,15.58.07,5.02-.3,9.22,1.24,16.02.16.72,1.03,1.92,1.71,2.29,1.8.99,2.1,2.11,3.42,3.38,1.04,1,1.95,1.23,1.79,1.56-.2.43-.99,1.13-2.3.81-.66-.17-1.74-.87-2.78-1.46-.17.2,1.5,2.89,3.26,4.84,2.58,2.88,3.21,4.96-1.96,5.16-3.24.13-6.74-2.53-8.93-8.98-.43-1.28-.88-3.13-1.34-4.92-.34-.77-2.7-12.89-3.2-16.59-.63-4.68-.47-5.25.68-8.17Z"/>
      <g>
        <path class="cls-10" d="M58.76,71.18s-3.47-.59-6.27,1.1-3.77,3.17-7.15,11.04c-3.38,7.87-4.04,9.39-4.04,9.39,0,0,1.53,4.48,10.53,5l4.04-9.21s3.36-4.18,3.66-9.34c.3-5.16-.76-7.98-.76-7.98Z"/>
        <path class="cls-12" d="M58.76,71.18s-3.47-.59-6.27,1.1-3.77,3.17-7.15,11.04c-3.38,7.87-4.04,9.39-4.04,9.39,0,0,1.53,4.48,10.53,5l4.04-9.21s3.36-4.18,3.66-9.34c.3-5.16-.76-7.98-.76-7.98Z"/>
      </g>
    </g>
  </g>
</svg>