<?xml version="1.0" encoding="utf-8"?>
<!-- Generator: Adobe Illustrator 24.2.0, SVG Export Plug-In . SVG Version: 6.00 Build 0)  -->
<svg version="1.1" id="Capa_1" xmlns="http://www.w3.org/2000/svg" xmlns:xlink="http://www.w3.org/1999/xlink" x="0px" y="0px"
	 viewBox="0 0 50 50" style="enable-background:new 0 0 50 50;" xml:space="preserve">
<style type="text/css">
	.st0{fill:url(#SVGID_1_);}
	.st1{fill:#064466;}
	.st2{fill:#03BA85;}
	.st3{fill:url(#SVGID_2_);}
	.st4{fill:#FFFFFF;}
	.st5{fill:url(#SVGID_3_);}
	.st6{clip-path:url(#SVGID_5_);}
	.st7{clip-path:url(#SVGID_7_);}
	.st8{fill:none;stroke:#FFFFFF;stroke-width:1.5;stroke-miterlimit:10;}
	.st9{fill:url(#SVGID_8_);}
	.st10{fill:none;stroke:#834DB5;stroke-width:2.4;stroke-linecap:round;stroke-linejoin:round;stroke-miterlimit:10;}
	.st11{fill:url(#SVGID_9_);}
</style>
<g>
	<g>
		<linearGradient id="SVGID_1_" gradientUnits="userSpaceOnUse" x1="2.7121" y1="25" x2="47.2879" y2="25">
			<stop  offset="0.2203" style="stop-color:#03BA85"/>
			<stop  offset="1" style="stop-color:#064466"/>
		</linearGradient>
		<path class="st0" d="M25,4.7c11.2,0,20.3,9.1,20.3,20.3v0c0,11.2-9.1,20.3-20.3,20.3h0C13.8,45.3,4.7,36.2,4.7,25v0
			C4.7,13.8,13.8,4.7,25,4.7L25,4.7 M25,2.7C12.7,2.7,2.7,12.7,2.7,25c0,12.3,10,22.3,22.3,22.3c12.3,0,22.3-10,22.3-22.3
			C47.3,12.7,37.3,2.7,25,2.7L25,2.7z"/>
	</g>
	<g>
		<g>
			<g>
				<path class="st1" d="M29.9,31.5c-0.1,0-0.2,0-0.3,0c-0.4-0.1-0.8-0.3-1.1-0.7c-0.2-0.4-0.3-0.8-0.2-1.3c0.2-0.9,1.1-1.5,2-1.3
					c0.4,0.1,0.8,0.3,1.1,0.7c0.2,0.4,0.3,0.8,0.2,1.3l0,0c-0.1,0.4-0.3,0.8-0.7,1.1C30.5,31.4,30.2,31.5,29.9,31.5z M29.9,29.1
					c-0.3,0-0.6,0.2-0.7,0.6c0,0.2,0,0.4,0.1,0.5c0.1,0.2,0.3,0.3,0.5,0.3c0.2,0,0.4,0,0.5-0.1c0.2-0.1,0.3-0.3,0.3-0.5l0,0
					c0-0.2,0-0.4-0.1-0.5c-0.1-0.2-0.3-0.3-0.5-0.3C30,29.1,29.9,29.1,29.9,29.1z"/>
			</g>
			<path class="st2" d="M31,12.5c-0.3-0.4-0.8-0.6-1.3-0.5c-1.7,0.5-3.4,1.3-4.8,2.5c-1,0.8-1.9,1.7-2.6,2.7
				c-0.6,0.8-1.2,1.7-1.7,2.6c-1,2-1.4,4.3-1.4,6.6c0,1,0.1,2.1,0.3,3.1c0.1,0.7,0.4,1.4,0.7,2.1h-4.4c-0.7,0-1.3,0.7-1.1,1.4
				c0.1,0.5,0.6,0.9,1.2,0.9l6.8,0c0.7,0,1.3-0.6,1.2-1.3c-0.1-0.6-0.7-0.9-1.1-1.3c-0.4-0.6-0.7-1.2-0.8-1.9
				c-0.4-1.9-0.2-4,0.2-5.8c0.3-1.2,0.7-2.4,1.2-3.5c0.3-0.5,0.6-1.1,0.9-1.6c0.9-1.1,2.5-2.8,5.2-3.8c0.8,1.7,2.3,5.9,1,11.4
				c-0.6-0.2-1.1-0.6-1.5-1.1c-1.2-1.6-1.1-4.1-1-5.3c0-0.3-0.2-0.6-0.5-0.7c-0.4-0.1-0.7,0.2-0.8,0.6c-0.1,1.3-0.2,4.3,1.3,6.2
				c0.8,1.1,2.3,1.9,3.7,1.8c0.5,0,0.9-0.4,1-0.9C34.7,18.4,31.1,12.7,31,12.5z"/>
		</g>
		<g>
			<path class="st1" d="M16.2,35.1c-1.3,0-2.4-1.1-2.4-2.4c0-1.3,1.1-2.4,2.4-2.4s2.4,1.1,2.4,2.4C18.6,34,17.5,35.1,16.2,35.1z
				 M16.2,31.8c-0.4,0-0.8,0.4-0.8,0.8s0.4,0.8,0.8,0.8c0.4,0,0.8-0.4,0.8-0.8S16.6,31.8,16.2,31.8z"/>
		</g>
	</g>
</g>
</svg>
