<svg width="294" height="111" viewBox="0 0 294 111" fill="none" xmlns="http://www.w3.org/2000/svg">
<path d="M53 10.5253C76.744 10.5253 96.036 29.8173 96.036 53.5613C96.036 77.3053 76.744 96.5973 53 96.5973C29.256 96.5973 9.964 77.3053 9.964 53.5613C9.964 29.8173 29.256 10.5253 53 10.5253ZM53 6.28529C26.924 6.28529 5.724 27.4853 5.724 53.5613C5.724 79.6373 26.924 100.837 53 100.837C79.076 100.837 100.276 79.6373 100.276 53.5613C100.276 27.4853 79.076 6.28529 53 6.28529Z" fill="white"/>
<path d="M63.388 67.3411C63.176 67.3411 62.964 67.3411 62.752 67.3411C61.904 67.1291 61.056 66.7051 60.42 65.8571C59.996 65.0091 59.7839 64.1611 59.9959 63.1011C60.4199 61.1931 62.328 59.9211 64.236 60.3451C65.084 60.5571 65.932 60.9811 66.568 61.8291C66.992 62.6771 67.204 63.5251 66.992 64.5851C66.78 65.4331 66.356 66.2811 65.508 66.9171C64.66 67.1291 64.024 67.3411 63.388 67.3411ZM63.388 62.2531C62.752 62.2531 62.116 62.6771 61.904 63.5251C61.904 63.9491 61.9039 64.3731 62.1159 64.5851C62.328 65.0091 62.752 65.2211 63.176 65.2211C63.6 65.2211 64.024 65.2211 64.236 65.0091C64.66 64.7971 64.872 64.3731 64.872 63.9491C64.872 63.5251 64.872 63.1011 64.66 62.8891C64.448 62.4651 64.024 62.2531 63.6 62.2531H63.388Z" fill="white"/>
<path d="M65.72 27.0611C65.084 26.2131 64.024 25.7891 62.964 26.0011C59.36 27.0611 55.756 28.7571 52.788 31.3011C50.668 32.9971 48.76 34.9051 47.276 37.0251C46.004 38.7211 44.732 40.6291 43.672 42.5371C41.552 46.7771 40.704 51.6531 40.704 56.5291C40.704 58.6491 40.916 60.9811 41.34 63.1011C41.552 64.5851 42.188 66.0691 42.824 67.5531H33.496C32.012 67.5531 30.74 69.0371 31.164 70.5211C31.376 71.5811 32.436 72.4291 33.708 72.4291H48.124C49.608 72.4291 50.88 71.1571 50.668 69.6731C50.456 68.4011 49.184 67.7651 48.336 66.9171C47.488 65.6451 46.852 64.3731 46.64 62.8891C45.792 58.8611 46.216 54.4091 47.064 50.5931C47.7 48.0491 48.548 45.5051 49.608 43.1731C50.244 42.1131 50.88 40.8411 51.516 39.7811C53.424 37.4491 56.816 33.8451 62.54 31.7251C64.236 35.3291 67.416 44.2331 64.66 55.8931C63.388 55.4691 62.328 54.6211 61.48 53.5611C58.936 50.1691 59.148 44.8691 59.36 42.3251C59.36 41.6891 58.936 41.0531 58.3 40.8411C57.452 40.6291 56.816 41.2651 56.604 42.1131C56.392 44.8691 56.18 51.2291 59.36 55.2571C61.056 57.5891 64.236 59.2851 67.204 59.0731C68.264 59.0731 69.112 58.2251 69.324 57.1651C73.564 39.5691 65.932 27.4851 65.72 27.0611Z" fill="white"/>
<path d="M34.344 74.9731C31.588 74.9731 29.256 72.6411 29.256 69.8851C29.256 67.1291 31.588 64.7971 34.344 64.7971C37.1 64.7971 39.432 67.1291 39.432 69.8851C39.432 72.6411 37.1 74.9731 34.344 74.9731ZM34.344 67.9771C33.496 67.9771 32.6479 68.8251 32.6479 69.6731C32.6479 70.5211 33.496 71.3691 34.344 71.3691C35.192 71.3691 36.04 70.5211 36.04 69.6731C36.04 68.8251 35.192 67.9771 34.344 67.9771Z" fill="white"/>
<path d="M149.409 39.2954C147.832 40.3515 146.08 41.0557 144.327 41.4077C142.225 41.9358 139.947 42.1118 137.844 42.1118C135.39 42.1118 132.937 41.7598 130.484 41.0557C128.731 40.5276 127.154 39.4714 125.928 38.0632C124.876 36.831 124.351 35.2467 124.351 33.6624C124.351 32.2542 124.701 30.8459 125.577 29.6137C126.453 28.3815 127.68 27.5014 129.082 26.9733C128.03 26.4452 127.154 25.565 126.453 24.5089C125.928 23.4527 125.577 22.2205 125.577 21.1643C125.577 19.58 126.103 18.1718 126.979 16.9396C128.03 15.5314 129.608 14.4752 131.36 13.9471C133.638 13.0669 135.916 12.7149 138.369 12.7149C140.122 12.7149 142.049 12.8909 143.802 13.243C145.379 13.595 146.956 14.1231 148.358 14.6512L146.43 19.7561C143.977 18.5239 141.348 17.9958 138.545 17.9958C136.442 17.9958 134.865 18.3478 133.813 18.8759C132.762 19.404 132.236 20.2842 132.236 21.5164C132.236 22.3965 132.587 23.2767 133.288 23.8047C134.339 24.3328 135.39 24.6849 136.617 24.5089H144.327V29.6137H136.267C134.865 29.6137 133.638 29.7898 132.411 30.4939C131.535 31.022 131.009 31.9021 131.009 32.9583C131.009 34.1905 131.71 35.0707 132.762 35.5987C133.989 36.3029 135.741 36.4789 138.019 36.4789C139.771 36.4789 141.348 36.3029 143.101 35.7748C144.678 35.4227 146.08 34.7186 147.306 33.8384L149.409 39.2954Z" fill="white"/>
<path d="M153.965 27.8534H160.274C161.676 27.8534 162.727 28.9096 162.727 30.3178C162.727 31.726 161.676 32.7822 160.274 32.7822H153.965C152.564 32.7822 151.512 31.726 151.512 30.3178C151.512 28.9096 152.564 27.8534 153.965 27.8534Z" fill="white"/>
<path d="M187.435 21.3403C184.982 19.9321 182.354 19.0519 179.725 18.6999V41.9358H173.241V18.5239C170.437 18.8759 167.809 19.7561 165.356 21.1643L163.078 16.2355C165.005 15.0033 167.108 14.1231 169.386 13.595C171.664 13.0669 173.942 12.7149 176.396 12.7149C178.849 12.7149 181.127 13.0669 183.405 13.595C185.683 14.1231 187.786 15.0033 189.713 16.2355L187.435 21.3403Z" fill="white"/>
<path d="M203.908 36.4789C204.784 36.1269 205.66 35.5988 206.361 34.8947L209.691 38.5913C207.588 40.8797 204.609 42.1119 200.754 42.1119C198.475 42.1119 196.197 41.5838 194.27 40.7036C192.517 39.8235 190.94 38.4152 189.889 36.6549C188.837 34.8947 188.312 32.9583 188.312 30.846C188.312 28.7336 188.837 26.7973 189.889 25.037C190.94 23.2767 192.342 21.8684 194.095 20.9883C195.847 19.9321 197.95 19.5801 200.053 19.5801C201.98 19.5801 203.908 19.9321 205.66 20.8123C207.413 21.6924 208.814 22.9246 209.691 24.6849C210.742 26.4452 211.268 28.5576 211.268 30.6699L195.146 33.8385C195.496 34.8947 196.373 35.7748 197.249 36.3029C198.3 36.831 199.527 37.183 200.929 37.183C201.98 37.007 203.032 36.831 203.908 36.4789ZM196.197 25.9171C195.146 27.1493 194.62 28.5576 194.62 30.1418L205.134 28.0295C204.784 26.9733 204.258 25.9171 203.207 25.389C202.331 24.6849 201.104 24.3329 199.877 24.3329C198.651 24.3329 197.249 24.861 196.197 25.9171Z" fill="white"/>
<path d="M219.854 40.7036C214.422 37.8871 212.319 31.374 215.123 25.9171C216.174 23.8047 217.927 22.2204 219.854 21.1643C221.782 20.1081 223.885 19.756 226.163 19.756C228.265 19.756 230.368 20.2841 232.121 21.1643C233.873 22.0444 235.1 23.4526 235.801 25.2129L230.894 27.8534C230.018 25.9171 228.09 24.8609 225.987 24.8609C224.41 24.8609 223.008 25.389 221.957 26.4452C219.854 28.9096 219.854 32.7822 221.957 35.2466C223.008 36.3028 224.585 36.8309 225.987 36.8309C228.09 36.8309 230.018 35.7747 230.894 33.8384L235.801 36.4789C235.1 38.2392 233.698 39.6474 232.121 40.5275C230.368 41.5837 228.265 42.1118 226.163 41.9358C223.885 42.1118 221.782 41.5837 219.854 40.7036Z" fill="white"/>
<path d="M258.932 22.0444C260.509 23.6287 261.385 26.0931 261.385 29.2616V41.7597H255.077V30.3178C255.077 28.5575 254.726 27.3253 254.025 26.4451C253.149 25.565 251.923 25.0369 250.696 25.2129C249.294 25.2129 247.892 25.741 246.841 26.6212C245.964 27.6773 245.439 29.0856 245.439 31.0219V41.7597H239.13V11.6586H245.439V22.2204C246.315 21.3403 247.366 20.6361 248.418 20.2841C249.644 19.756 251.046 19.58 252.273 19.58C254.902 19.4039 257.18 20.2841 258.932 22.0444Z" fill="white"/>
<path d="M129.082 77.6698C127.329 77.1417 125.577 76.4376 124 75.3814L126.278 70.4526C127.505 71.3327 129.082 72.2129 130.659 72.5649C132.236 73.093 133.988 73.4451 135.741 73.4451C137.668 73.4451 138.895 73.093 139.946 72.5649C140.823 72.2129 141.348 71.3327 141.348 70.2766C141.348 69.5724 140.998 69.0443 140.647 68.5163C140.122 67.9882 139.421 67.6361 138.545 67.4601C137.668 67.108 136.617 66.932 135.215 66.5799C133.463 66.2279 131.71 65.6998 129.958 64.9957C128.556 64.4676 127.329 63.5874 126.453 62.5312C125.402 61.299 124.876 59.7148 125.051 57.9545C125.051 56.3702 125.577 54.7859 126.453 53.5537C127.505 52.1455 128.907 50.9133 130.484 50.3852C132.587 49.505 134.865 49.153 136.967 49.153C138.72 49.153 140.472 49.329 142.225 49.8571C143.802 50.2092 145.379 50.9133 146.781 51.7934L144.678 56.7223C142.225 55.314 139.596 54.6099 136.792 54.4339C135.04 54.4339 133.638 54.7859 132.762 55.314C131.886 55.8421 131.36 56.7223 131.535 57.6024C131.535 58.6586 132.061 59.3627 133.112 59.7148C134.514 60.4189 136.091 60.7709 137.668 61.123C139.421 61.4751 141.173 62.0032 142.926 62.7073C144.327 63.2354 145.554 64.1155 146.43 65.1717C147.482 66.4039 148.007 67.9882 147.832 69.7485C147.832 71.3327 147.306 72.917 146.43 74.1492C145.379 75.5574 143.977 76.6136 142.4 77.3177C140.297 78.1979 138.019 78.5499 135.741 78.5499C133.288 78.5499 131.185 78.1979 129.082 77.6698Z" fill="white"/>
<path d="M173.417 56.1941V78.0218H167.459V75.3814C166.582 76.2615 165.531 77.1417 164.48 77.4937C163.253 78.1979 162.026 78.3739 160.8 78.3739C157.996 78.3739 155.718 77.4937 153.965 75.9095C152.388 74.3252 151.512 71.8608 151.512 68.5162V56.1941H157.821V67.6361C157.821 71.1567 159.223 72.917 162.202 72.917C163.603 72.917 164.83 72.3889 165.882 71.5087C166.758 70.4525 167.283 69.0443 167.283 67.108V56.3702H173.417V56.1941Z" fill="white"/>
<path d="M181.302 77.6697C179.9 77.3177 178.498 76.7896 177.096 75.9094L179.199 71.3327C180.251 72.0368 181.477 72.5649 182.704 72.9169C183.931 73.269 185.333 73.445 186.734 73.6211C189.363 73.6211 190.765 72.9169 190.765 71.6847C190.765 70.9806 190.239 70.4525 189.713 70.2765C188.662 69.9244 187.435 69.7484 186.384 69.5724C184.807 69.3963 183.405 69.0443 182.003 68.6922C180.776 68.3402 179.9 67.6361 179.024 66.7559C178.148 65.6997 177.622 64.2915 177.797 62.8832C177.797 61.475 178.148 60.2428 179.024 59.1866C179.9 58.1304 181.127 57.2503 182.529 56.7222C184.281 56.0181 186.034 55.8421 187.961 55.8421C189.538 55.8421 191.115 56.0181 192.517 56.3701C193.919 56.7222 195.146 57.0743 196.372 57.7784L194.094 62.3552C192.167 61.299 190.064 60.7709 187.786 60.7709C186.734 60.7709 185.683 60.9469 184.807 61.299C184.281 61.475 183.755 62.1791 183.755 62.7072C183.755 63.4113 184.281 63.9394 184.807 64.1155C185.858 64.4675 187.085 64.8196 188.312 64.8196C189.713 64.9956 191.291 65.3477 192.693 65.6997C193.744 66.0518 194.795 66.7559 195.672 67.6361C196.548 68.6922 197.073 69.9244 196.898 71.3327C196.898 72.5649 196.548 73.9731 195.672 75.0293C194.795 76.2615 193.569 76.9656 192.167 77.4937C190.414 78.1978 188.487 78.3739 186.559 78.3739C184.807 78.3739 183.055 78.1978 181.302 77.6697Z" fill="white"/>
<path d="M213.896 76.9657C213.195 77.4938 212.494 77.8458 211.618 78.0219C210.742 78.1979 209.69 78.3739 208.814 78.3739C206.186 78.3739 204.258 77.6698 202.856 76.4376C201.454 75.0294 200.753 73.093 200.753 70.6286V51.4414H207.062V56.7223H212.494V61.6511H207.062V70.4526C207.062 71.1567 207.237 72.0369 207.763 72.565C208.289 73.093 208.989 73.4451 209.69 73.2691C210.567 73.2691 211.443 72.917 212.319 72.3889L213.896 76.9657Z" fill="white"/>
<path d="M238.78 56.1942V78.0219H232.822V75.5575C231.244 77.4938 228.966 78.374 225.987 78.374C224.06 78.374 222.132 77.8459 220.38 76.9657C218.803 76.0856 217.401 74.6773 216.525 73.0931C214.597 69.3964 214.597 64.9957 216.525 61.2991C217.401 59.7148 218.803 58.3066 220.38 57.4264C222.132 56.5463 224.06 56.0182 225.987 56.0182C228.791 56.0182 230.894 56.8983 232.471 58.6586V56.3702L238.78 56.1942ZM231.069 71.5088C233.172 68.8683 233.172 65.1717 231.069 62.7073C228.791 60.5949 225.286 60.5949 223.184 62.7073C221.081 65.3478 221.081 69.0444 223.184 71.5088C225.286 73.7972 228.791 73.7972 231.069 71.5088Z" fill="white"/>
<path d="M276.456 58.3066C278.033 59.8908 278.909 62.3553 278.909 65.5238V78.0219H272.6V66.58C272.6 64.8197 272.25 63.5875 271.549 62.7073C270.673 61.8272 269.446 61.2991 268.219 61.4751C266.818 61.4751 265.416 62.0032 264.364 62.8833C263.488 63.9395 262.962 65.3478 262.962 67.2841V78.0219H256.654V56.1942H262.612V58.8347C263.488 57.9545 264.539 57.2504 265.766 56.7223C266.993 56.1942 268.395 56.0182 269.797 56.0182C272.425 55.8422 274.703 56.7223 276.456 58.3066Z" fill="white"/>
<path d="M244.913 52.1455C243.511 50.9133 243.511 48.6249 244.738 47.2167L244.913 47.0406C245.614 46.3365 246.665 45.9845 247.717 45.9845C248.768 45.9845 249.82 46.3365 250.521 47.0406C251.221 47.5687 251.572 48.4489 251.572 49.5051C251.572 50.5612 251.221 51.4414 250.521 52.1455C249.82 52.8496 248.768 53.2017 247.717 53.2017C246.665 53.2017 245.614 52.8496 244.913 52.1455ZM244.563 56.1942H250.871V78.0219H244.563V56.1942Z" fill="white"/>
<path d="M247.717 54.0818C245.088 54.0818 243.161 51.9694 243.161 49.505C243.161 46.8646 245.263 44.9283 247.717 44.9283C250.17 44.9283 252.273 47.0406 252.273 49.505C252.448 51.9694 250.345 54.0818 247.717 54.0818ZM247.717 47.9208C246.841 47.9208 246.14 48.6249 246.14 49.505C246.14 50.3852 246.841 51.0893 247.717 51.0893C248.593 51.0893 249.294 50.3852 249.294 49.505C249.294 48.6249 248.593 47.9208 247.717 47.9208Z" fill="white"/>
<path d="M125.051 93.5125C125.051 92.6323 125.227 92.1042 125.402 91.5761C125.577 91.048 125.927 90.696 126.278 90.3439C126.628 89.9919 127.154 89.8158 127.855 89.6398C128.556 89.4638 129.432 89.4638 130.308 89.4638C130.834 89.4638 131.185 89.4638 131.535 89.4638C131.885 89.4638 132.411 89.4638 132.762 89.6398C133.112 89.6398 133.463 89.8158 133.638 89.9919C133.813 90.1679 133.813 90.3439 133.813 90.52V91.2241C133.463 91.048 133.112 91.048 132.762 90.872C132.411 90.872 131.885 90.696 131.535 90.696C131.185 90.696 130.659 90.696 130.308 90.696C129.607 90.696 129.082 90.696 128.556 90.872C128.03 91.048 127.855 91.2241 127.68 91.7522C127.505 92.1042 127.329 92.8083 127.329 93.5125C127.329 94.2166 127.505 94.7447 127.68 95.2728C127.855 95.6248 128.206 95.9769 128.731 96.1529C129.257 96.3289 129.783 96.3289 130.659 96.3289C131.009 96.3289 131.36 96.3289 131.71 96.3289C132.061 96.3289 132.411 96.1529 132.762 96.1529C133.112 96.1529 133.463 95.9769 133.988 95.9769V96.681C133.988 96.857 133.988 97.0331 133.813 97.2091C133.638 97.3851 133.463 97.3851 132.937 97.5611C132.586 97.5611 132.061 97.7372 131.71 97.7372C131.36 97.7372 130.834 97.7372 130.484 97.7372C129.432 97.7372 128.731 97.7372 128.03 97.5611C127.329 97.3851 126.804 97.2091 126.453 96.857C126.103 96.505 125.752 96.1529 125.577 95.6248C125.051 94.9207 125.051 94.2166 125.051 93.5125Z" fill="white"/>
<path d="M138.72 97.5612C138.194 97.5612 137.493 97.5612 137.143 97.3851C136.617 97.3851 136.266 97.2091 135.916 96.8571C135.566 96.681 135.39 96.329 135.215 95.8009C135.04 95.2728 135.04 94.7447 135.04 94.0406C135.04 93.3365 135.04 92.6323 135.215 92.2803C135.39 91.7522 135.566 91.4001 135.916 91.2241C136.266 91.0481 136.617 90.872 137.143 90.696C137.668 90.696 138.194 90.52 138.72 90.52C139.421 90.52 139.946 90.52 140.297 90.696C140.823 90.696 141.173 90.872 141.524 91.2241C141.874 91.4001 142.049 91.7522 142.224 92.2803C142.4 92.8084 142.4 93.3365 142.4 94.0406C142.4 94.7447 142.4 95.4488 142.224 95.8009C142.049 96.329 141.874 96.681 141.524 96.8571C141.173 97.0331 140.823 97.2091 140.297 97.3851C139.946 97.5612 139.421 97.5612 138.72 97.5612ZM138.72 96.505C139.07 96.505 139.421 96.505 139.596 96.329C139.771 96.1529 139.946 95.9769 140.122 95.6248C140.297 95.2728 140.297 94.7447 140.297 94.0406C140.297 93.3365 140.297 92.8084 140.122 92.4563C139.946 92.1043 139.771 91.9282 139.596 91.7522C139.421 91.5762 139.07 91.5762 138.72 91.5762C138.369 91.5762 138.019 91.5762 137.844 91.7522C137.668 91.9282 137.318 92.1043 137.318 92.4563C137.143 92.8084 137.143 93.3365 137.143 94.0406C137.143 94.7447 137.143 95.2728 137.318 95.6248C137.493 95.9769 137.668 96.1529 137.844 96.329C138.019 96.329 138.369 96.505 138.72 96.505Z" fill="white"/>
<path d="M144.853 97.3851C144.502 97.3851 144.327 97.3851 144.152 97.2091C143.977 97.0331 143.977 96.8571 143.977 96.505V90.872C144.152 90.872 144.327 90.696 144.502 90.696C144.678 90.696 145.028 90.696 145.379 90.696C145.729 90.696 146.08 90.52 146.255 90.52C146.605 90.52 146.956 90.52 147.306 90.52C147.657 90.52 148.182 90.52 148.358 90.696C148.708 90.696 148.883 90.872 149.234 91.0481C149.409 91.2241 149.584 91.4001 149.76 91.7522H149.409C149.584 91.4001 149.584 91.2241 149.76 91.0481C149.935 90.872 150.11 90.696 150.46 90.696C150.811 90.696 150.986 90.52 151.161 90.52C151.337 90.52 151.687 90.52 151.862 90.52C152.563 90.52 153.264 90.52 153.615 90.696C153.965 90.872 154.316 91.0481 154.491 91.4001C154.666 91.7522 154.841 92.1043 154.841 92.8084V96.681C154.841 97.0331 154.841 97.2091 154.666 97.2091C154.491 97.2091 154.316 97.3851 153.965 97.3851H152.739C152.739 96.681 152.739 95.8009 152.739 95.0968C152.739 94.3926 152.739 93.5125 152.739 92.8084C152.739 92.2803 152.563 92.1043 152.388 91.9282C152.213 91.7522 151.862 91.7522 151.512 91.7522C151.337 91.7522 151.161 91.7522 150.986 91.7522C150.811 91.7522 150.636 91.9282 150.46 91.9282C150.285 92.1043 150.285 92.1043 150.285 92.2803V97.5612H148.533V92.4563C148.533 92.1043 148.358 91.9282 148.182 91.7522C148.007 91.5762 147.657 91.5762 147.306 91.5762C147.131 91.5762 146.956 91.5762 146.781 91.5762C146.605 91.5762 146.43 91.5762 146.43 91.7522C146.255 91.7522 146.255 91.9282 146.255 91.9282V97.3851H144.853Z" fill="white"/>
<path d="M158.521 90.52V95.0968C158.521 95.6248 158.697 95.9769 158.872 96.1529C159.047 96.329 159.573 96.505 160.099 96.505C160.624 96.505 160.975 96.329 161.325 96.1529C161.5 95.9769 161.676 95.6248 161.676 95.2728V90.696C161.676 90.696 161.676 90.696 161.851 90.696C162.026 90.696 162.026 90.696 162.201 90.696C162.377 90.696 162.552 90.696 162.552 90.696C162.727 90.696 162.727 90.696 162.727 90.696C162.902 90.696 163.078 90.696 163.253 90.696C163.428 90.696 163.428 90.872 163.603 90.872C163.603 91.0481 163.603 91.2241 163.603 91.4001V94.9207C163.603 95.6249 163.428 96.1529 163.253 96.505C163.078 96.8571 162.727 97.2091 162.201 97.3851C161.676 97.5612 160.975 97.7372 159.923 97.7372C159.047 97.7372 158.346 97.7372 157.821 97.5612C157.295 97.3851 156.944 97.2091 156.769 96.8571C156.594 96.505 156.419 95.9769 156.419 95.2728V91.5762C156.419 91.2241 156.419 91.0481 156.594 91.0481C156.769 90.872 156.944 90.872 157.295 90.872C157.47 90.872 157.645 90.872 157.996 90.872C157.996 90.52 158.346 90.52 158.521 90.52Z" fill="white"/>
<path d="M165.881 97.3851C165.531 97.3851 165.356 97.2091 165.356 96.8571V91.0481C165.706 90.872 166.232 90.872 166.757 90.696C167.283 90.52 168.159 90.52 168.86 90.52C169.736 90.52 170.262 90.52 170.788 90.696C171.314 90.872 171.664 90.872 171.839 91.2241C172.015 91.4001 172.19 91.7522 172.365 92.1043C172.365 92.4563 172.54 92.9844 172.54 93.5125V96.8571C172.54 97.0331 172.54 97.2091 172.54 97.3851C172.54 97.5612 172.365 97.5612 172.365 97.5612C172.19 97.5612 172.015 97.5612 171.839 97.5612H170.613V92.9844C170.613 92.6323 170.437 92.2803 170.262 92.1043C170.087 91.9282 169.561 91.7522 169.211 91.7522C169.036 91.7522 168.86 91.7522 168.685 91.7522C168.51 91.7522 168.335 91.7522 168.159 91.9282C167.984 91.9282 167.809 92.1043 167.809 92.1043V97.5612H165.881V97.3851Z" fill="white"/>
<path d="M175.87 97.5612C175.169 97.5612 174.643 97.3851 174.468 97.0331C174.293 96.681 174.117 96.3289 174.117 95.6248V90.52H176.22V95.4488C176.22 95.8009 176.22 96.1529 176.395 96.3289C176.571 96.505 176.746 96.505 176.921 96.505C177.096 96.505 177.096 96.505 177.272 96.505C177.447 96.505 177.447 96.505 177.447 96.505V97.2091H177.272C177.096 97.2091 176.921 97.2091 176.746 97.2091C176.395 97.5612 176.22 97.5612 175.87 97.5612ZM174.994 89.6398C174.643 89.6398 174.468 89.6398 174.293 89.4638C174.117 89.2877 174.117 89.2877 174.117 88.9357C174.117 88.5836 174.117 88.5836 174.293 88.4076C174.468 88.2316 174.643 88.2316 174.994 88.2316C175.344 88.2316 175.519 88.2316 175.694 88.4076C175.87 88.4076 175.87 88.5836 175.87 88.9357C175.87 89.1117 175.87 89.2877 175.694 89.4638C175.694 89.6398 175.344 89.6398 174.994 89.6398Z" fill="white"/>
<path d="M177.973 94.0407C177.973 93.1605 178.148 92.4564 178.323 91.9283C178.674 91.4002 179.024 91.0481 179.55 90.8721C180.075 90.6961 180.601 90.5201 181.302 90.5201C181.477 90.5201 181.828 90.5201 182.003 90.5201C182.354 90.5201 182.529 90.5201 182.704 90.6961C182.879 90.6961 183.23 90.6961 183.405 90.8721C183.58 90.8721 183.755 91.0482 183.755 91.0482L183.23 91.2242V88.7598H185.333V94.0407C185.333 94.7448 185.333 95.4489 185.157 95.977C184.982 96.5051 184.807 96.8571 184.456 97.0332C184.106 97.2092 183.755 97.3852 183.23 97.5613C182.704 97.5613 182.178 97.7373 181.302 97.7373C180.601 97.7373 180.075 97.7373 179.55 97.5613C179.024 97.3852 178.674 97.3852 178.498 97.0332C178.148 96.8571 177.973 96.5051 177.973 95.977C178.148 95.2729 177.973 94.7448 177.973 94.0407ZM181.653 96.329C182.003 96.329 182.354 96.329 182.529 96.153C182.704 96.153 182.879 95.977 183.054 95.801C183.23 95.6249 183.23 95.4489 183.23 95.0968C183.23 94.7448 183.23 94.3927 183.23 94.0407V91.5762C183.055 91.5762 183.054 91.5762 182.879 91.5762C182.704 91.5762 182.529 91.5762 182.354 91.5762C182.178 91.5762 182.003 91.5762 181.828 91.5762C181.302 91.5762 180.952 91.5762 180.601 91.7523C180.251 91.9283 180.075 92.1043 180.075 92.4564C179.9 92.8084 179.9 93.3365 179.9 93.8646C179.9 94.5687 179.9 95.0968 180.075 95.4489C180.251 95.801 180.251 95.977 180.601 96.153C180.952 96.329 181.302 96.329 181.653 96.329Z" fill="white"/>
<path d="M190.414 97.5612C189.713 97.5612 189.012 97.5612 188.662 97.5612C188.136 97.5612 187.786 97.3852 187.611 97.2092C187.435 97.0331 187.26 96.8571 187.085 96.505C186.91 96.153 186.91 95.8009 186.91 95.4489C186.91 94.9208 186.91 94.3927 187.085 94.0406C187.26 93.6886 187.435 93.5125 187.786 93.3365C188.136 93.1605 188.487 93.1605 189.012 93.1605C189.363 93.1605 189.538 93.1605 190.064 93.1605C190.414 93.1605 190.765 93.1605 191.115 93.1605C191.466 93.1605 191.816 93.1605 191.991 93.1605C192.167 93.1605 192.342 93.1605 192.517 93.1605C192.517 92.8084 192.517 92.4564 192.342 92.1043C192.342 91.9283 192.167 91.7522 191.991 91.5762C191.816 91.4002 191.641 91.4002 191.466 91.4002C191.291 91.4002 190.94 91.4002 190.59 91.4002C190.239 91.4002 189.889 91.4002 189.363 91.4002C189.012 91.4002 188.662 91.4002 188.311 91.4002C187.961 91.4002 187.611 91.5762 187.435 91.5762V91.2242C187.435 90.8721 187.435 90.6961 187.611 90.52C187.786 90.344 187.961 90.344 188.136 90.168C188.311 90.168 188.837 89.9919 189.188 89.9919C189.713 89.9919 190.239 89.9919 190.765 89.9919C191.466 89.9919 191.991 89.9919 192.517 90.168C193.043 90.344 193.393 90.344 193.744 90.52C194.094 90.6961 194.27 91.0481 194.445 91.4002C194.62 91.7522 194.62 92.2803 194.62 92.9844V96.505C194.445 96.6811 194.094 96.8571 193.393 96.8571C192.517 97.3852 191.466 97.5612 190.414 97.5612ZM190.239 96.6811C190.59 96.6811 190.94 96.6811 191.291 96.6811C191.466 96.6811 191.816 96.6811 191.991 96.505C192.167 96.505 192.342 96.329 192.342 96.329V94.2167C192.167 94.2167 191.991 94.2167 191.816 94.0406C191.641 94.0406 191.291 94.0406 191.115 94.0406C190.94 94.0406 190.59 94.0406 190.414 94.0406C190.064 94.0406 189.713 94.0406 189.538 94.0406C189.363 94.0406 189.188 94.2167 189.012 94.3927C188.837 94.5687 188.837 94.9208 188.837 95.2728C188.837 95.6249 188.837 95.8009 189.012 95.977C189.012 96.153 189.188 96.329 189.363 96.329C189.538 96.505 189.889 96.6811 190.239 96.6811Z" fill="white"/>
<path d="M195.671 94.0407C195.671 93.1605 195.847 92.4564 196.022 91.9283C196.197 91.4002 196.723 91.0481 197.249 90.8721C197.774 90.6961 198.3 90.5201 199.001 90.5201C199.176 90.5201 199.527 90.5201 199.702 90.5201C200.052 90.5201 200.228 90.5201 200.403 90.6961C200.578 90.6961 200.928 90.6961 201.104 90.8721C201.279 90.8721 201.454 91.0482 201.454 91.0482L200.928 91.2242V88.7598H203.031V94.0407C203.031 94.7448 203.031 95.4489 202.856 95.977C202.681 96.5051 202.506 96.8571 202.155 97.0332C201.805 97.2092 201.454 97.3852 200.928 97.5613C200.403 97.5613 199.877 97.7373 199.001 97.7373C198.3 97.7373 197.774 97.7373 197.249 97.5613C196.723 97.3852 196.372 97.3852 196.197 97.0332C195.847 96.8571 195.671 96.5051 195.671 95.977C195.671 95.2729 195.671 94.7448 195.671 94.0407ZM199.176 96.329C199.527 96.329 199.877 96.329 200.052 96.153C200.228 96.153 200.403 95.977 200.578 95.801C200.753 95.6249 200.753 95.4489 200.753 95.0968C200.753 94.7448 200.753 94.3927 200.753 94.0407V91.5762C200.578 91.5762 200.578 91.5762 200.403 91.5762C200.228 91.5762 200.052 91.5762 199.877 91.5762C199.702 91.5762 199.527 91.5762 199.351 91.5762C198.826 91.5762 198.475 91.5762 198.125 91.7523C197.774 91.9283 197.599 92.1043 197.599 92.4564C197.424 92.8084 197.424 93.3365 197.424 93.8646C197.424 94.5687 197.424 95.0968 197.599 95.4489C197.774 95.801 197.774 95.977 198.125 96.153C198.475 96.329 198.826 96.329 199.176 96.329Z" fill="white"/>
<path d="M208.639 89.4638H217.576V90.696H214.246V96.505C214.246 96.857 214.246 97.0331 214.071 97.2091C213.896 97.3851 213.721 97.3851 213.37 97.3851H211.793V90.696H208.464V89.4638H208.639Z" fill="white"/>
<path d="M221.782 97.5612C221.081 97.5612 220.38 97.5612 219.854 97.3852C219.328 97.2092 218.978 97.0332 218.628 96.8571C218.277 96.6811 218.102 96.329 217.927 95.8009C217.751 95.2729 217.751 94.7448 217.751 94.0407C217.751 93.1605 217.927 92.4564 218.102 91.9283C218.277 91.4002 218.803 91.0481 219.328 90.6961C219.854 90.5201 220.73 90.344 221.782 90.344C222.658 90.344 223.184 90.5201 223.709 90.6961C224.235 90.8721 224.586 91.2242 224.761 91.5762C224.936 91.9283 225.111 92.4564 225.111 93.1605V94.3927H220.38C220.38 94.2167 220.38 94.0406 220.555 93.8646C220.73 93.6886 220.906 93.6886 221.081 93.6886H223.359V93.3365C223.359 92.8084 223.184 92.4564 223.008 92.1043C222.833 91.9283 222.307 91.7523 221.782 91.7523C221.256 91.7523 220.906 91.7523 220.555 91.9283C220.205 92.1043 220.029 92.2803 220.029 92.6324C219.854 92.9845 219.854 93.5126 219.854 94.2167C219.854 94.9208 219.854 95.2729 220.029 95.6249C220.205 95.977 220.38 96.153 220.73 96.329C221.081 96.5051 221.431 96.5051 221.957 96.5051C222.132 96.5051 222.483 96.5051 222.658 96.5051C223.008 96.5051 223.359 96.5051 223.534 96.5051C223.885 96.5051 224.235 96.5051 224.41 96.5051C224.586 96.5051 224.761 96.5051 224.936 96.5051V96.8571C224.936 97.0332 224.936 97.2092 224.936 97.2092C224.936 97.3852 224.761 97.5612 224.586 97.5612C224.41 97.7373 224.06 97.7373 223.534 97.9133C223.359 97.5612 222.658 97.5612 221.782 97.5612Z" fill="white"/>
<path d="M230.543 97.5612C229.492 97.5612 228.791 97.3852 228.265 97.2092C227.74 97.0332 227.214 96.6811 227.039 96.153C226.688 95.6249 226.688 94.9208 226.688 94.0407C226.688 92.9845 226.863 92.2804 227.039 91.7523C227.389 91.2242 227.74 90.8721 228.265 90.6961C228.791 90.5201 229.667 90.344 230.543 90.344C230.894 90.344 231.069 90.344 231.42 90.344C231.77 90.344 231.945 90.344 232.471 90.5201C232.646 90.5201 232.821 90.5201 232.997 90.6961C233.172 90.6961 233.172 90.8721 233.347 91.0481C233.347 91.2242 233.522 91.4002 233.522 91.7523C233.347 91.7523 233.172 91.5762 232.997 91.5762C232.646 91.5762 232.471 91.5762 232.121 91.4002C231.77 91.4002 231.595 91.4002 231.244 91.4002C230.719 91.4002 230.193 91.4002 229.842 91.5762C229.492 91.7523 229.142 91.9283 229.142 92.2804C228.966 92.6324 228.966 93.1605 228.966 93.6886C228.966 94.2167 228.966 94.7448 229.142 95.0968C229.317 95.4489 229.492 95.6249 229.842 95.801C230.193 95.977 230.719 95.977 231.244 95.977C231.595 95.977 231.77 95.977 232.121 95.977C232.471 95.977 232.646 95.977 232.997 95.801C233.172 95.801 233.347 95.6249 233.522 95.6249V96.153C233.522 96.329 233.347 96.5051 233.172 96.6811C232.997 96.8571 232.646 96.8571 232.121 96.8571C231.42 97.5612 231.069 97.5612 230.543 97.5612Z" fill="white"/>
<path d="M235.1 97.3851C234.749 97.3851 234.574 97.2091 234.574 96.8571V91.0481C234.924 90.872 235.45 90.872 235.976 90.696C236.501 90.52 237.378 90.52 238.079 90.52C238.955 90.52 239.48 90.52 240.006 90.696C240.532 90.872 240.882 90.872 241.058 91.2241C241.233 91.4001 241.408 91.7522 241.583 92.1043C241.583 92.4563 241.759 92.9844 241.759 93.5125V96.8571C241.759 97.0331 241.759 97.2091 241.759 97.3851C241.759 97.5612 241.583 97.5612 241.583 97.5612C241.408 97.5612 241.233 97.5612 241.058 97.5612H239.831V92.9844C239.831 92.6323 239.656 92.2803 239.48 92.1043C239.305 91.9282 238.78 91.7522 238.429 91.7522C238.254 91.7522 238.079 91.7522 237.903 91.7522C237.728 91.7522 237.553 91.7522 237.378 91.9282C237.202 91.9282 237.027 92.1043 237.027 92.1043V97.5612H235.1V97.3851Z" fill="white"/>
<path d="M246.84 97.5612C246.315 97.5612 245.614 97.5612 245.263 97.3851C244.738 97.3851 244.387 97.2091 244.037 96.8571C243.686 96.681 243.511 96.329 243.336 95.8009C243.161 95.2728 243.161 94.7447 243.161 94.0406C243.161 93.3365 243.161 92.6323 243.336 92.2803C243.511 91.7522 243.686 91.4001 244.037 91.2241C244.387 91.0481 244.738 90.872 245.263 90.696C245.789 90.696 246.315 90.52 246.84 90.52C247.541 90.52 248.067 90.52 248.418 90.696C248.768 90.872 249.294 90.872 249.644 91.2241C249.995 91.4001 250.17 91.7522 250.345 92.2803C250.52 92.8084 250.52 93.3365 250.52 94.0406C250.52 94.7447 250.52 95.4488 250.345 95.8009C250.17 96.329 249.995 96.681 249.644 96.8571C249.294 97.0331 248.943 97.2091 248.418 97.3851C248.067 97.5612 247.541 97.5612 246.84 97.5612ZM246.84 96.505C247.191 96.505 247.541 96.505 247.717 96.329C247.892 96.1529 248.067 95.9769 248.242 95.6248C248.418 95.2728 248.418 94.7447 248.418 94.0406C248.418 93.3365 248.418 92.8084 248.242 92.4563C248.067 92.1043 247.892 91.9282 247.717 91.7522C247.541 91.5762 247.191 91.5762 246.84 91.5762C246.49 91.5762 246.14 91.5762 245.964 91.7522C245.789 91.9282 245.439 92.1043 245.439 92.4563C245.263 92.8084 245.263 93.3365 245.263 94.0406C245.263 94.7447 245.263 95.2728 245.439 95.6248C245.614 95.9769 245.789 96.1529 245.964 96.329C246.315 96.329 246.49 96.505 246.84 96.505Z" fill="white"/>
<path d="M254.2 97.5612C253.499 97.5612 252.974 97.3852 252.623 97.2091C252.273 97.0331 252.098 96.505 252.098 95.8009V89.6399C252.098 89.4638 252.098 89.2878 252.098 89.1118C252.098 88.9357 252.273 88.9357 252.273 88.9357C252.448 88.9357 252.623 88.9357 252.798 88.9357H254.2C254.2 88.9357 254.2 89.1118 254.2 89.2878C254.2 89.4638 254.2 89.6398 254.2 89.9919V95.8009C254.2 96.153 254.2 96.505 254.376 96.681C254.551 96.8571 254.726 97.0331 254.901 97.0331C255.077 97.0331 255.077 97.0331 255.252 97.0331C255.427 97.0331 255.427 97.0331 255.427 97.0331V97.7372C255.427 97.7372 255.252 97.7372 255.077 97.7372C254.901 97.3852 254.551 97.5612 254.2 97.5612Z" fill="white"/>
<path d="M259.983 97.5612C259.457 97.5612 258.756 97.5612 258.406 97.3852C257.88 97.3852 257.53 97.2091 257.179 96.8571C256.829 96.6811 256.654 96.329 256.478 95.8009C256.303 95.2728 256.303 94.7447 256.303 94.0406C256.303 93.3365 256.303 92.6324 256.478 92.2803C256.654 91.7522 256.829 91.4002 257.179 91.2241C257.53 91.0481 257.88 90.8721 258.406 90.696C258.932 90.696 259.457 90.52 259.983 90.52C260.684 90.52 261.21 90.52 261.56 90.696C262.086 90.696 262.436 90.8721 262.787 91.2241C263.137 91.4002 263.313 91.7522 263.488 92.2803C263.663 92.8084 263.663 93.3365 263.663 94.0406C263.663 94.7447 263.663 95.4488 263.488 95.8009C263.313 96.329 263.137 96.6811 262.787 96.8571C262.436 97.0331 262.086 97.2091 261.56 97.3852C261.21 97.5612 260.684 97.5612 259.983 97.5612ZM259.983 96.505C260.334 96.505 260.684 96.505 260.859 96.329C261.034 96.153 261.21 95.9769 261.385 95.6249C261.56 95.2728 261.56 94.7447 261.56 94.0406C261.56 93.3365 261.56 92.8084 261.385 92.4563C261.21 92.1043 261.034 91.9282 260.859 91.7522C260.684 91.5762 260.334 91.5762 259.983 91.5762C259.633 91.5762 259.282 91.5762 259.107 91.7522C258.932 91.9282 258.581 92.1043 258.581 92.4563C258.406 92.8084 258.406 93.3365 258.406 94.0406C258.406 94.7447 258.406 95.2728 258.581 95.6249C258.756 95.9769 258.932 96.153 259.107 96.329C259.457 96.329 259.633 96.505 259.983 96.505ZM259.457 89.4638L261.735 87.3515L262.787 87.8796L260.509 89.4638H259.457Z" fill="white"/>
<path d="M268.57 99.4975C268.219 99.4975 267.869 99.4975 267.518 99.4975C267.168 99.4975 266.817 99.4975 266.642 99.3215C266.292 99.3215 266.116 99.1454 265.941 98.9694C265.766 98.7934 265.766 98.6174 265.766 98.4413V98.2653C265.766 98.0893 265.766 98.0893 265.766 98.0893C265.941 98.0893 266.116 98.2653 266.467 98.2653C266.817 98.2653 267.168 98.4413 267.518 98.4413C267.869 98.4413 268.219 98.4413 268.394 98.4413C269.095 98.4413 269.621 98.2653 269.972 98.0893C270.322 97.9132 270.497 97.5612 270.673 97.2091C270.848 96.8571 270.848 96.329 270.673 95.6248H271.023C270.848 95.9769 270.673 96.329 270.497 96.505C270.322 96.681 269.972 96.8571 269.621 96.8571C269.271 96.8571 268.92 97.0331 268.394 97.0331C267.694 97.0331 267.168 97.0331 266.642 96.8571C266.292 96.681 265.941 96.329 265.766 95.9769C265.591 95.4488 265.415 94.9207 265.415 94.0406C265.415 93.3365 265.415 92.8084 265.591 92.2803C265.766 91.7522 265.941 91.4001 266.292 91.2241C266.642 91.0481 266.993 90.872 267.518 90.696C268.044 90.52 268.745 90.52 269.446 90.52C269.621 90.52 269.972 90.52 270.322 90.52C270.673 90.52 271.023 90.52 271.374 90.52C271.724 90.52 272.074 90.52 272.25 90.52C272.6 90.52 272.775 90.52 272.775 90.52V90.696C272.775 90.872 272.775 91.0481 272.775 91.2241C272.775 91.4001 272.775 91.5762 272.775 91.7522V95.8009C272.775 96.681 272.6 97.3851 272.425 97.9132C272.074 98.4413 271.724 98.7934 271.198 98.9694C270.147 99.3215 269.446 99.4975 268.57 99.4975ZM268.745 95.9769C269.095 95.9769 269.271 95.9769 269.621 95.8009C269.796 95.8009 270.147 95.6249 270.322 95.4488C270.497 95.2728 270.497 94.9207 270.497 94.5687V91.7522C270.322 91.7522 270.147 91.7522 269.972 91.7522C269.796 91.7522 269.271 91.7522 268.92 91.7522C268.57 91.7522 268.219 91.7522 267.869 91.9282C267.694 92.1043 267.518 92.2803 267.343 92.6323C267.168 92.9844 267.168 93.3365 267.168 94.0406C267.168 94.7447 267.168 95.0968 267.343 95.4488C267.518 95.8009 267.694 95.9769 267.869 96.1529C268.044 95.8009 268.394 95.9769 268.745 95.9769Z" fill="white"/>
<path d="M275.93 97.5612C275.229 97.5612 274.703 97.3851 274.528 97.0331C274.352 96.681 274.177 96.3289 274.177 95.6248V90.52H276.28V95.4488C276.28 95.8009 276.28 96.1529 276.455 96.3289C276.631 96.505 276.806 96.505 276.981 96.505C277.156 96.505 277.156 96.505 277.332 96.505C277.507 96.505 277.507 96.505 277.507 96.505V97.2091H277.332C277.156 97.2091 276.981 97.2091 276.806 97.2091C276.631 97.5612 276.28 97.5612 275.93 97.5612ZM275.229 89.6398C274.878 89.6398 274.703 89.6398 274.528 89.4638C274.352 89.2877 274.352 89.2877 274.352 88.9357C274.352 88.5836 274.352 88.5836 274.528 88.4076C274.703 88.2316 274.878 88.2316 275.229 88.2316C275.579 88.2316 275.754 88.2316 275.93 88.4076C276.105 88.4076 276.105 88.5836 276.105 88.9357C276.105 89.1117 276.105 89.2877 275.93 89.4638C275.754 89.6398 275.579 89.6398 275.229 89.6398Z" fill="white"/>
<path d="M282.238 97.5612C281.187 97.5612 280.486 97.3852 279.96 97.2092C279.434 97.0332 278.909 96.6811 278.733 96.153C278.383 95.6249 278.383 94.9208 278.383 94.0407C278.383 92.9845 278.558 92.2804 278.733 91.7523C279.084 91.2242 279.434 90.8721 279.96 90.6961C280.486 90.5201 281.362 90.344 282.238 90.344C282.589 90.344 282.764 90.344 283.114 90.344C283.465 90.344 283.64 90.344 284.166 90.5201C284.341 90.5201 284.516 90.5201 284.691 90.6961C284.867 90.6961 284.867 90.8721 285.042 91.0481C285.042 91.2242 285.217 91.4002 285.217 91.7523C285.042 91.7523 284.867 91.5762 284.691 91.5762C284.341 91.5762 284.166 91.5762 283.815 91.4002C283.465 91.4002 283.29 91.4002 282.939 91.4002C282.413 91.4002 281.888 91.4002 281.537 91.5762C281.187 91.7523 280.836 91.9283 280.836 92.2804C280.661 92.6324 280.661 93.1605 280.661 93.6886C280.661 94.2167 280.661 94.7448 280.836 95.0968C281.011 95.4489 281.187 95.6249 281.537 95.801C281.888 95.977 282.413 95.977 282.939 95.977C283.29 95.977 283.465 95.977 283.815 95.977C284.166 95.977 284.341 95.977 284.691 95.801C284.867 95.801 285.042 95.6249 285.217 95.6249V96.153C285.217 96.329 285.042 96.5051 284.867 96.6811C284.691 96.8571 284.341 96.8571 283.815 96.8571C283.29 97.5612 282.764 97.5612 282.238 97.5612Z" fill="white"/>
<path d="M289.598 97.5612C288.897 97.5612 288.196 97.5612 287.846 97.5612C287.32 97.5612 286.969 97.3852 286.794 97.2092C286.619 97.0331 286.444 96.8571 286.269 96.505C286.093 96.153 286.093 95.8009 286.093 95.4489C286.093 94.9208 286.093 94.3927 286.269 94.0406C286.444 93.6886 286.619 93.5125 286.969 93.3365C287.32 93.1605 287.67 93.1605 288.196 93.1605C288.547 93.1605 288.722 93.1605 289.248 93.1605C289.598 93.1605 289.948 93.1605 290.299 93.1605C290.649 93.1605 291 93.1605 291.175 93.1605C291.35 93.1605 291.526 93.1605 291.701 93.1605C291.701 92.8084 291.701 92.4564 291.526 92.1043C291.526 91.9283 291.35 91.7522 291.175 91.5762C291 91.4002 290.825 91.4002 290.649 91.4002C290.474 91.4002 290.124 91.4002 289.773 91.4002C289.423 91.4002 289.072 91.4002 288.547 91.4002C288.196 91.4002 287.846 91.4002 287.495 91.4002C287.145 91.4002 286.794 91.5762 286.619 91.5762V91.2242C286.619 90.8721 286.619 90.6961 286.794 90.52C286.969 90.344 287.145 90.344 287.32 90.168C287.495 90.168 288.021 89.9919 288.371 89.9919C288.897 89.9919 289.423 89.9919 289.948 89.9919C290.649 89.9919 291.175 89.9919 291.701 90.168C292.227 90.168 292.577 90.344 292.927 90.52C293.278 90.6961 293.453 91.0481 293.628 91.4002C293.804 91.7522 293.804 92.2803 293.804 92.9844V96.505C293.628 96.6811 293.278 96.8571 292.577 96.8571C291.701 97.3852 290.825 97.5612 289.598 97.5612ZM289.598 96.6811C289.948 96.6811 290.299 96.6811 290.649 96.6811C290.825 96.6811 291.175 96.6811 291.35 96.505C291.526 96.505 291.701 96.329 291.701 96.329V94.2167C291.526 94.2167 291.35 94.2167 291.175 94.0406C291 94.0406 290.649 94.0406 290.474 94.0406C290.299 94.0406 289.948 94.0406 289.773 94.0406C289.423 94.0406 289.072 94.0406 288.897 94.0406C288.722 94.0406 288.547 94.2167 288.371 94.3927C288.196 94.5687 288.196 94.9208 288.196 95.2728C288.196 95.6249 288.196 95.8009 288.371 95.977C288.371 96.153 288.547 96.329 288.722 96.329C288.897 96.505 289.248 96.6811 289.598 96.6811Z" fill="white"/>
<path d="M125.051 108.123C125.402 108.299 125.752 108.299 126.103 108.475C126.628 108.475 126.979 108.651 127.505 108.651C128.03 108.651 128.381 108.651 128.731 108.651C128.906 108.651 129.082 108.651 129.257 108.651C129.432 108.651 129.607 108.651 129.783 108.651C130.133 108.651 130.484 108.651 130.834 108.475C131.185 108.475 131.36 108.299 131.535 108.123C131.71 107.947 131.71 107.771 131.71 107.419C131.71 107.067 131.535 106.715 131.36 106.715C131.185 106.539 130.834 106.539 130.308 106.539C130.133 106.539 129.958 106.539 129.783 106.539C129.607 106.539 129.432 106.539 129.082 106.539C128.731 106.539 128.556 106.539 128.206 106.539C127.855 106.539 127.505 106.539 127.154 106.539C126.804 106.539 126.453 106.363 126.103 106.363C125.752 106.187 125.577 106.011 125.402 105.659C125.227 105.307 125.051 104.954 125.051 104.426C125.051 103.722 125.227 103.37 125.402 103.018C125.577 102.666 125.927 102.314 126.278 102.314C126.628 102.138 127.154 101.962 127.68 101.962C128.206 101.962 128.731 101.962 129.432 101.962C129.783 101.962 130.308 101.962 130.659 101.962C131.185 101.962 131.535 101.962 131.885 101.962C132.236 101.962 132.586 102.138 132.762 102.138C133.112 102.138 133.287 102.314 133.463 102.49C133.638 102.666 133.813 102.842 133.813 103.018V103.194C133.813 103.37 133.813 103.37 133.813 103.546C133.813 103.722 133.813 103.722 133.813 103.722C133.638 103.546 133.463 103.546 133.287 103.546C133.112 103.546 132.762 103.37 132.411 103.37C132.061 103.37 131.71 103.37 131.36 103.37C131.009 103.37 130.834 103.37 130.484 103.37H129.082C128.731 103.37 128.381 103.37 128.206 103.546C127.855 103.546 127.68 103.722 127.505 103.898C127.329 104.074 127.329 104.25 127.329 104.602C127.329 104.778 127.329 105.13 127.505 105.13C127.68 105.307 127.68 105.307 128.03 105.483C128.206 105.483 128.556 105.483 128.731 105.483C129.432 105.483 129.958 105.483 130.308 105.483C130.659 105.483 131.009 105.483 131.185 105.483C131.71 105.483 132.236 105.483 132.586 105.659C132.937 105.835 133.287 106.011 133.638 106.363C133.813 106.715 133.988 107.243 133.988 107.947C133.988 108.651 133.813 109.179 133.638 109.531C133.287 109.883 132.937 110.235 132.586 110.411C132.061 110.587 131.535 110.763 131.009 110.763C130.484 110.763 130.133 110.763 129.607 110.763C129.257 110.763 128.731 110.763 128.206 110.763C127.855 110.763 127.329 110.763 126.979 110.763C126.628 110.763 126.278 110.763 125.927 110.587C125.577 110.587 125.402 110.411 125.227 110.235C125.051 110.059 124.876 109.883 124.876 109.707V108.123H125.051Z" fill="white"/>
<path d="M139.596 109.883C138.895 109.883 138.369 109.883 137.843 109.707C137.318 109.531 136.967 109.531 136.617 109.179C136.266 109.003 136.091 108.475 135.916 108.123C135.741 107.595 135.565 107.067 135.565 106.187C135.565 105.483 135.741 104.778 135.916 104.25C136.091 103.722 136.442 103.37 136.617 103.194C136.967 103.018 137.318 102.842 137.843 102.666C138.369 102.49 138.895 102.49 139.596 102.49C140.297 102.49 140.822 102.49 141.348 102.666C141.874 102.842 142.224 103.018 142.575 103.194C142.925 103.37 143.101 103.898 143.276 104.25C143.451 104.778 143.451 105.306 143.451 106.187C143.451 106.891 143.451 107.595 143.276 108.123C143.101 108.651 142.925 109.003 142.575 109.179C142.224 109.355 141.874 109.531 141.348 109.707C140.822 109.883 140.122 109.883 139.596 109.883ZM139.596 108.827C139.946 108.827 140.297 108.827 140.472 108.651C140.647 108.475 140.998 108.299 140.998 107.947C141.173 107.595 141.173 107.067 141.173 106.363C141.173 105.659 141.173 105.13 140.998 104.778C140.822 104.426 140.647 104.074 140.472 104.074C140.297 103.898 139.946 103.898 139.596 103.898C139.245 103.898 138.895 103.898 138.72 104.074C138.369 104.25 138.194 104.426 138.194 104.778C138.019 105.13 138.019 105.659 138.019 106.363C138.019 107.067 138.019 107.595 138.194 107.947C138.369 108.299 138.544 108.651 138.72 108.651C138.895 108.827 139.245 108.827 139.596 108.827Z" fill="white"/>
<path d="M148.183 109.883C147.832 109.883 147.657 109.883 147.306 109.883C146.956 109.883 146.605 109.883 146.43 109.883C146.08 109.883 145.905 109.707 145.554 109.707C145.379 109.707 145.204 109.531 145.028 109.531C144.853 109.531 144.853 109.355 144.853 109.179C144.853 109.003 144.853 108.651 144.853 108.299C145.204 108.475 145.554 108.475 145.905 108.651C146.255 108.651 146.605 108.827 146.956 108.827C147.306 108.827 147.657 108.827 148.007 108.827C148.358 108.827 148.533 108.827 148.884 108.827C149.234 108.827 149.409 108.827 149.76 108.651C149.935 108.651 150.285 108.475 150.461 108.299C150.636 108.123 150.636 107.947 150.636 107.595C150.636 107.243 150.461 107.067 150.285 106.891C150.11 106.715 149.935 106.715 149.584 106.715H147.657C147.131 106.715 146.605 106.715 146.255 106.715C145.905 106.715 145.554 106.539 145.204 106.187C145.028 105.835 144.853 105.483 144.853 104.778C144.853 104.074 145.028 103.546 145.379 103.194C145.729 102.842 146.255 102.666 146.781 102.49C147.482 102.314 148.183 102.314 149.059 102.314C149.409 102.314 149.76 102.314 150.11 102.314C150.461 102.314 150.986 102.314 151.162 102.49C151.512 102.49 151.687 102.49 151.863 102.666C152.038 102.666 152.213 102.842 152.213 103.018C152.388 103.194 152.388 103.37 152.388 103.722V104.25C152.388 104.074 152.038 104.074 151.863 103.898C151.687 103.722 151.337 103.722 150.811 103.722C150.461 103.722 150.11 103.722 149.584 103.722C149.234 103.722 148.708 103.722 148.533 103.722C148.183 103.722 148.007 103.722 147.657 103.722C147.306 103.722 147.131 103.898 146.956 104.074C146.956 104.25 146.781 104.426 146.781 104.778C146.781 104.954 146.781 105.131 146.956 105.307C147.131 105.483 147.131 105.483 147.306 105.483C147.482 105.483 147.657 105.483 147.832 105.483H149.935C150.461 105.483 150.811 105.483 151.162 105.659C151.512 105.659 151.863 106.011 152.038 106.187C152.213 106.539 152.388 106.891 152.388 107.595C152.388 108.299 152.213 108.827 151.863 109.179C151.512 109.531 150.986 109.707 150.285 109.883C149.76 109.883 149.059 109.883 148.183 109.883Z" fill="white"/>
<path d="M156.419 109.883C155.893 109.883 155.367 109.883 155.017 109.707C154.666 109.531 154.491 109.355 154.316 109.003C154.14 108.651 154.14 108.299 154.14 107.771V103.722H153.44V102.49H154.14V101.434C154.14 101.258 154.14 101.082 154.14 100.906C154.14 100.73 154.316 100.73 154.316 100.73C154.491 100.73 154.666 100.73 154.841 100.73H156.243V100.906C156.243 100.906 156.243 101.082 156.243 101.258V102.666H157.996V103.898H156.243V107.771C156.243 108.299 156.243 108.651 156.419 108.827C156.594 109.003 156.769 109.179 157.119 109.179C157.295 109.179 157.295 109.179 157.47 109.179C157.645 109.179 157.82 109.179 157.82 109.179V110.059C157.82 110.059 157.645 110.059 157.295 110.235C157.119 109.883 156.769 109.883 156.419 109.883Z" fill="white"/>
<path d="M163.078 109.883C162.201 109.883 161.676 109.883 161.15 109.707C160.624 109.531 160.274 109.355 159.923 109.179C159.573 109.003 159.398 108.651 159.222 108.123C159.047 107.595 159.047 107.067 159.047 106.363C159.047 105.483 159.222 104.778 159.398 104.25C159.573 103.722 160.099 103.37 160.624 103.018C161.325 102.842 162.026 102.666 163.253 102.666C164.129 102.666 164.83 102.842 165.356 103.018C165.881 103.194 166.232 103.546 166.407 103.898C166.582 104.25 166.758 104.778 166.758 105.483V106.715H161.676C161.676 106.539 161.676 106.363 161.851 106.187C162.026 106.011 162.201 106.011 162.377 106.011H164.83V105.659C164.83 105.13 164.655 104.602 164.479 104.426C164.304 104.074 163.778 104.074 163.253 104.074C162.727 104.074 162.377 104.074 162.026 104.25C161.676 104.426 161.5 104.602 161.5 105.13C161.325 105.483 161.325 106.011 161.325 106.715C161.325 107.419 161.325 107.771 161.5 108.123C161.676 108.475 161.851 108.651 162.201 108.827C162.552 109.003 162.902 109.003 163.603 109.003C163.778 109.003 164.129 109.003 164.479 109.003C164.83 109.003 165.18 109.003 165.531 109.003C165.881 109.003 166.232 109.003 166.407 109.003C166.582 109.003 166.758 109.003 166.933 109.003V109.355C166.933 109.531 166.933 109.707 166.933 109.883C166.933 110.059 166.758 110.235 166.582 110.235C166.407 110.411 166.057 110.411 165.531 110.587C164.655 109.883 163.954 109.883 163.078 109.883Z" fill="white"/>
<path d="M168.685 109.883C168.335 109.883 168.159 109.707 168.159 109.355V103.194C168.51 103.018 169.036 102.842 169.737 102.842C170.437 102.666 171.138 102.666 172.015 102.666C172.891 102.666 173.592 102.666 174.117 102.842C174.643 103.018 174.994 103.018 175.169 103.37C175.344 103.546 175.519 103.898 175.695 104.25C175.695 104.602 175.87 105.13 175.87 105.659V109.179C175.87 109.355 175.87 109.531 175.87 109.707C175.87 109.883 175.695 109.883 175.695 110.059C175.519 110.059 175.344 110.059 175.169 110.059H173.942V105.307C173.942 104.954 173.767 104.602 173.592 104.426C173.241 104.25 172.891 104.074 172.365 104.074C172.19 104.074 172.015 104.074 171.839 104.074C171.664 104.074 171.489 104.074 171.314 104.25C171.138 104.25 170.963 104.426 170.788 104.426V110.059H168.685V109.883Z" fill="white"/>
<path d="M179.199 109.883C178.498 109.883 177.973 109.707 177.797 109.355C177.447 109.003 177.447 108.651 177.447 107.947V102.666H179.55V107.947C179.55 108.299 179.55 108.651 179.725 108.827C179.9 109.003 180.075 109.003 180.251 109.003C180.426 109.003 180.426 109.003 180.601 109.003C180.776 109.003 180.776 109.003 180.776 109.003V109.883H180.601C180.426 109.883 180.251 109.883 180.075 109.883C179.9 109.883 179.55 109.883 179.199 109.883ZM178.498 101.786C178.148 101.786 177.973 101.786 177.797 101.61C177.622 101.434 177.622 101.434 177.622 101.082C177.622 100.73 177.622 100.73 177.797 100.554C177.973 100.378 178.148 100.378 178.498 100.378C178.849 100.378 179.024 100.378 179.199 100.554C179.374 100.73 179.374 100.73 179.374 101.082C179.374 101.258 179.374 101.434 179.199 101.61C179.024 101.61 178.849 101.786 178.498 101.786Z" fill="white"/>
<path d="M185.508 109.883C184.807 109.883 184.106 109.883 183.58 109.707C183.054 109.707 182.704 109.531 182.529 109.179C182.178 109.003 182.003 108.651 182.003 108.123C181.828 107.595 181.828 107.067 181.828 106.187V100.554H183.931V102.49C183.931 102.49 184.106 102.49 184.281 102.49C184.456 102.49 184.632 102.49 184.807 102.49C184.982 102.49 185.333 102.49 185.508 102.49C185.683 102.49 185.858 102.49 186.209 102.49C187.085 102.49 187.786 102.666 188.312 102.842C188.837 103.018 189.188 103.37 189.363 103.898C189.538 104.426 189.713 105.13 189.713 106.011C189.713 106.891 189.713 107.595 189.538 107.947C189.363 108.475 189.188 108.827 188.837 109.003C188.487 109.179 188.136 109.355 187.611 109.531C186.91 109.883 186.209 109.883 185.508 109.883ZM185.683 108.651C186.209 108.651 186.559 108.651 186.734 108.475C186.91 108.299 187.085 108.123 187.26 107.771C187.435 107.419 187.435 106.891 187.435 106.187C187.435 105.659 187.435 105.13 187.26 104.778C187.085 104.426 186.91 104.25 186.734 104.074C186.559 103.898 186.209 103.898 185.683 103.898C185.508 103.898 185.333 103.898 185.333 103.898C185.157 103.898 184.982 103.898 184.807 103.898C184.632 103.898 184.456 103.898 184.281 103.898C184.106 103.898 184.106 103.898 184.106 103.898V106.715C184.106 107.243 184.106 107.595 184.106 107.771C184.106 108.123 184.281 108.299 184.281 108.475C184.456 108.651 184.632 108.651 184.807 108.827C184.982 108.651 185.333 108.651 185.683 108.651Z" fill="white"/>
<path d="M193.218 109.883C192.517 109.883 191.991 109.707 191.641 109.531C191.291 109.179 191.115 108.827 191.115 108.123V101.61C191.115 101.434 191.115 101.258 191.115 101.082C191.115 100.906 191.291 100.906 191.291 100.906C191.466 100.906 191.641 100.906 191.816 100.906H193.218C193.218 100.906 193.218 101.082 193.218 101.258C193.218 101.434 193.218 101.61 193.218 101.962V107.947C193.218 108.299 193.218 108.651 193.393 108.827C193.569 109.003 193.744 109.179 193.919 109.179C194.094 109.179 194.094 109.179 194.27 109.179C194.445 109.179 194.445 109.179 194.445 109.179V110.059C194.445 110.059 194.27 110.059 194.094 110.235C194.094 109.883 193.744 109.883 193.218 109.883Z" fill="white"/>
<path d="M199.351 109.883C198.475 109.883 197.95 109.883 197.424 109.707C196.898 109.531 196.548 109.355 196.197 109.179C195.847 109.003 195.672 108.651 195.496 108.123C195.321 107.595 195.321 107.067 195.321 106.363C195.321 105.483 195.496 104.778 195.672 104.25C195.847 103.722 196.372 103.37 196.898 103.018C197.599 102.842 198.3 102.666 199.527 102.666C200.403 102.666 201.104 102.842 201.63 103.018C202.155 103.194 202.506 103.546 202.681 103.898C202.856 104.25 203.031 104.778 203.031 105.483V106.715H197.95C197.95 106.539 197.95 106.363 198.125 106.187C198.3 106.011 198.475 106.011 198.651 106.011H201.104V105.659C201.104 105.13 200.929 104.602 200.753 104.426C200.578 104.074 200.052 104.074 199.527 104.074C199.001 104.074 198.651 104.074 198.3 104.25C197.95 104.426 197.774 104.602 197.774 105.13C197.774 105.659 197.599 105.659 197.599 106.363C197.599 107.067 197.599 107.419 197.774 107.771C197.95 108.123 198.125 108.299 198.475 108.475C198.826 108.651 199.176 108.651 199.877 108.651C200.052 108.651 200.403 108.651 200.753 108.651C201.104 108.651 201.454 108.651 201.805 108.651C202.155 108.651 202.506 108.651 202.681 108.651C202.856 108.651 203.031 108.651 203.207 108.651V109.003C203.207 109.179 203.207 109.355 203.207 109.531C203.207 109.707 203.031 109.883 202.856 109.883C202.681 110.059 202.331 110.059 201.805 110.235C200.929 109.883 200.228 109.883 199.351 109.883Z" fill="white"/>
<path d="M204.784 109.179C204.784 108.827 204.959 108.651 205.134 108.475C205.309 108.475 205.66 108.299 206.01 108.299C206.361 108.299 206.536 108.299 206.711 108.475C206.886 108.475 207.062 108.827 207.062 109.179C207.062 109.355 207.062 109.531 206.886 109.707C206.711 109.883 206.711 109.883 206.536 109.883C206.361 109.883 206.186 109.883 206.01 109.883C205.835 109.883 205.66 109.883 205.485 109.883C205.309 109.883 205.134 109.707 205.134 109.707C204.784 109.531 204.784 109.355 204.784 109.179Z" fill="white"/>
</svg>
