<?xml version="1.0" encoding="utf-8"?>
<!-- Generator: Adobe Illustrator 24.2.0, SVG Export Plug-In . SVG Version: 6.00 Build 0)  -->
<svg version="1.1" id="Capa_1" xmlns="http://www.w3.org/2000/svg" xmlns:xlink="http://www.w3.org/1999/xlink" x="0px" y="0px"
	 viewBox="0 0 41 41" style="enable-background:new 0 0 41 41;" xml:space="preserve">
<style type="text/css">
	.st0{fill:url(#SVGID_1_);}
	.st1{fill:#FFFFFF;}
	.st2{fill:url(#SVGID_7_);}
	.st3{fill:#03BA85;}
	.st4{fill:url(#SVGID_13_);}
	.st5{fill:#011536;}
	.st6{fill:#064466;}
	.st7{fill:url(#SVGID_14_);}
</style>
<g>
	<g>
		<g>
			<g>
				<g>
					<path class="st3" d="M19.6,15.8c0,0.1,0,0.2,0,0.3c-0.1,0.4-0.3,0.7-0.6,0.9c-0.3,0.2-0.7,0.3-1.1,0.2
						c-0.8-0.2-1.2-0.9-1.1-1.7c0.1-0.4,0.3-0.7,0.6-0.9c0.3-0.2,0.7-0.3,1.1-0.2l0,0c0.4,0.1,0.7,0.3,0.9,0.6
						C19.5,15.3,19.6,15.5,19.6,15.8z M17.6,15.8c0,0.3,0.2,0.5,0.5,0.6c0.2,0,0.3,0,0.5-0.1c0.1-0.1,0.2-0.2,0.3-0.4
						c0-0.2,0-0.3-0.1-0.5c-0.1-0.1-0.2-0.2-0.4-0.3l0,0c-0.2,0-0.3,0-0.5,0.1c-0.1,0.1-0.2,0.2-0.3,0.4
						C17.6,15.7,17.6,15.8,17.6,15.8z"/>
				</g>
				
					<linearGradient id="SVGID_1_" gradientUnits="userSpaceOnUse" x1="953.0469" y1="2491.7847" x2="974.2687" y2="2491.7847" gradientTransform="matrix(0 -1 1 0 -2479.4421 987.2234)">
					<stop  offset="0.2203" style="stop-color:#03BA85"/>
					<stop  offset="1" style="stop-color:#064466"/>
				</linearGradient>
				<path class="st0" d="M3.6,14.9c-0.4,0.2-0.5,0.7-0.4,1.1c0.4,1.5,1.1,2.8,2.1,4c0.6,0.8,1.4,1.6,2.3,2.2c0.7,0.5,1.4,1,2.2,1.4
					c1.7,0.8,3.6,1.2,5.5,1.1c0.9,0,1.7-0.1,2.6-0.2c0.6-0.1,1.2-0.3,1.7-0.6v9.3c0,0.6,0.6,1.1,1.2,1c0.5-0.1,0.8-0.5,0.8-1l0-11.3
					c0-0.6-0.5-1.1-1.1-1c-0.5,0.1-0.7,0.6-1.1,0.9c-0.5,0.4-1,0.6-1.6,0.7c-1.6,0.3-3.3,0.2-4.9-0.1c-1-0.2-2-0.6-2.9-1
					c-0.5-0.2-0.9-0.5-1.3-0.8c-0.9-0.7-2.3-2.1-3.2-4.3c1.4-0.7,4.9-2,9.5-0.8c-0.2,0.5-0.5,0.9-0.9,1.2c-1.3,1-3.5,0.9-4.4,0.9
					c-0.3,0-0.5,0.2-0.6,0.4c-0.1,0.3,0.2,0.6,0.5,0.6c1.1,0.1,3.6,0.2,5.2-1.1c0.9-0.7,1.6-1.9,1.5-3.1c0-0.4-0.3-0.8-0.7-0.9
					C8.6,11.8,3.8,14.8,3.6,14.9z"/>
			</g>
			<g>
				<path class="st5" d="M22.5,33.3c0,1.1-0.9,2-2,2c-1.1,0-2-0.9-2-2c0-1.1,0.9-2,2-2C21.6,31.2,22.5,32.1,22.5,33.3z M19.8,33.3
					c0,0.4,0.3,0.7,0.7,0.7c0.4,0,0.7-0.3,0.7-0.7c0-0.4-0.3-0.7-0.7-0.7C20.1,32.6,19.8,32.9,19.8,33.3z"/>
			</g>
		</g>
	</g>
	<g>
		<g>
			<g>
				<path class="st6" d="M21.4,19.2c0-0.1,0-0.2,0-0.3c0.1-0.4,0.3-0.7,0.6-0.9c0.3-0.2,0.7-0.3,1.1-0.2c0.8,0.2,1.2,0.9,1.1,1.7
					c-0.1,0.4-0.3,0.7-0.6,0.9c-0.3,0.2-0.7,0.3-1.1,0.2l0,0c-0.4-0.1-0.7-0.3-0.9-0.6C21.5,19.7,21.4,19.5,21.4,19.2z M23.4,19.2
					c0-0.3-0.2-0.5-0.5-0.6c-0.2,0-0.3,0-0.5,0.1c-0.1,0.1-0.2,0.2-0.3,0.4c0,0.2,0,0.3,0.1,0.5c0.1,0.1,0.2,0.2,0.4,0.3l0,0
					c0.2,0,0.3,0,0.5-0.1c0.1-0.1,0.2-0.2,0.3-0.4C23.4,19.3,23.4,19.2,23.4,19.2z"/>
			</g>
			<path class="st3" d="M37.3,20.1c0.4-0.2,0.5-0.7,0.4-1.1c-0.4-1.5-1.1-2.8-2.1-4c-0.6-0.8-1.4-1.6-2.3-2.2
				c-0.7-0.5-1.4-1-2.2-1.4c-1.7-0.8-3.6-1.2-5.5-1.1c-0.9,0-1.7,0.1-2.6,0.2c-0.6,0.1-1.2,0.3-1.7,0.6V7.4c0-0.6-0.6-1.1-1.2-1
				c-0.5,0.1-0.8,0.5-0.8,1v5.7c0,0.6,0.5,1.1,1.1,1c0.5-0.1,0.7-0.6,1.1-0.9c0.5-0.4,1-0.6,1.6-0.7c1.6-0.3,3.3-0.2,4.9,0.1
				c1,0.2,2,0.6,2.9,1c0.5,0.2,0.9,0.5,1.3,0.8c0.9,0.7,2.3,2.1,3.2,4.3c-1.4,0.7-4.9,2-9.5,0.8c0.2-0.5,0.5-0.9,0.9-1.2
				c1.3-1,3.5-0.9,4.4-0.9c0.3,0,0.5-0.2,0.6-0.4c0.1-0.3-0.2-0.6-0.5-0.6c-1.1-0.1-3.6-0.2-5.2,1.1c-0.9,0.7-1.6,1.9-1.5,3.1
				c0,0.4,0.3,0.8,0.7,0.9C32.4,23.2,37.1,20.2,37.3,20.1z"/>
		</g>
		<g>
			<path class="st6" d="M18.4,7.7c0-1.1,0.9-2,2-2c1.1,0,2,0.9,2,2s-0.9,2-2,2C19.4,9.7,18.4,8.8,18.4,7.7z M21.2,7.7
				c0-0.4-0.3-0.7-0.7-0.7c-0.4,0-0.7,0.3-0.7,0.7s0.3,0.7,0.7,0.7C20.9,8.4,21.2,8.1,21.2,7.7z"/>
		</g>
	</g>
</g>
</svg>
